<?xml version="1.0" encoding="UTF-8"?>
<!-- Generator: visioncortex VTracer 0.6.2 -->
<svg version="1.1" xmlns="http://www.w3.org/2000/svg" width="1280" height="1280">
<path d="M0 0 C1.09326599 -0.00489441 2.18653198 -0.00978882 3.31292725 -0.01483154 C24.41475585 -0.05356457 44.67408403 1.83863498 65.265625 6.54296875 C68.92366402 7.49946404 68.92366402 7.49946404 72.1875 7.3125 C75.27768927 7.37967803 77.18768816 8.27675573 79.9453125 9.58203125 C83.57984696 10.94330523 87.38688022 11.33607321 91.2109375 11.91015625 C94.59157355 12.46124624 97.78041585 13.40253062 101.0625 14.375 C102.54260048 14.68884012 104.02612291 14.98673548 105.51171875 15.2734375 C109.36499632 16.03033131 113.20572961 16.82961133 117.04296875 17.6640625 C118.06197266 17.88320313 119.08097656 18.10234375 120.13085938 18.328125 C122.22309991 18.77880173 124.31424439 19.23459505 126.40429688 19.6953125 C131.77286113 20.84060621 136.58763164 21.49258107 142.0625 21.375 C143.74458635 22.34883946 145.40988161 23.35195052 147.0625 24.375 C148.4477053 24.73166963 149.84589732 25.03954834 151.25 25.3125 C166.88502276 28.45508763 183.9815926 38.2452126 196.0625 48.375 C196.0625 49.035 196.0625 49.695 196.0625 50.375 C197.3825 50.705 198.7025 51.035 200.0625 51.375 C200.0625 52.035 200.0625 52.695 200.0625 53.375 C200.63355469 53.62894531 201.20460938 53.88289063 201.79296875 54.14453125 C213.9186094 60.71867377 228.13588347 76.17903968 236.0625 87.375 C236.0625 88.035 236.0625 88.695 236.0625 89.375 C237.0525 89.705 238.0425 90.035 239.0625 90.375 C243.0625 94.83214286 243.0625 94.83214286 243.0625 97.375 C244.0525 97.705 245.0425 98.035 246.0625 98.375 C247.45361328 99.81103516 247.45361328 99.81103516 248.8828125 101.6640625 C249.41374512 102.35081055 249.94467773 103.03755859 250.49169922 103.74511719 C251.05131348 104.48922852 251.61092773 105.23333984 252.1875 106 C253.05592529 107.14710449 253.05592529 107.14710449 253.94189453 108.31738281 C259.20259096 115.37345415 263.77738779 122.69653645 268.0625 130.375 C268.71089844 131.52097656 269.35929688 132.66695312 270.02734375 133.84765625 C273.06225553 139.33359615 275.81986955 144.79392496 278.03515625 150.66015625 C279.0645364 153.38038137 280.16495677 156.06684442 281.2722168 158.75610352 C289.86266406 179.75055156 295.31901453 202.64162748 297.703125 225.1953125 C297.99512303 228.24092431 297.99512303 228.24092431 298.55029297 230.66357422 C301.18350805 244.60279573 300.21677814 259.50970333 300.19287109 273.61669922 C300.18755065 277.33956043 300.19282293 281.06229888 300.19921875 284.78515625 C300.20287576 296.39553038 300.09092544 307.98820023 299.6171875 319.58984375 C299.57844513 320.54258179 299.53970276 321.49531982 299.49978638 322.47692871 C299.23172636 328.3265795 298.73101896 334.12079837 298.0625 339.9375 C296.53461211 353.69168605 296.39090675 367.54987682 296.0625 381.375 C296.7225 381.375 297.3825 381.375 298.0625 381.375 C299.32282615 382.83432501 300.57658259 384.30068327 301.7734375 385.8125 C303.09029757 387.49434672 303.09029757 387.49434672 305.0625 389.125 C314.01752773 399.1994062 314.84441223 412.09084568 314.26220703 424.875 C313.20104909 438.15893321 308.36278809 451.43309482 302.1640625 463.125 C300.03886866 467.46582146 298.3210239 472.00951448 296.52734375 476.49609375 C295.0625 479.375 295.0625 479.375 292.0625 480.375 C292.10375 481.2825 292.145 482.19 292.1875 483.125 C292.0625 486.375 292.0625 486.375 291.1484375 488.078125 C289.59143695 491.37134919 289.141645 494.80924514 288.5625 498.375 C288.43359375 499.13031006 288.3046875 499.88562012 288.171875 500.66381836 C287.59451825 504.06481045 287.04837365 507.46817157 286.53125 510.87890625 C286.29921875 512.39291016 286.29921875 512.39291016 286.0625 513.9375 C285.93875 514.80503906 285.815 515.67257812 285.6875 516.56640625 C285.01339804 519.59565195 283.97843321 522.31451027 282.85595703 525.20043945 C281.20184241 529.73373142 280.08730343 534.43829152 278.86914062 539.10351562 C278.66353516 539.86986328 278.45792969 540.63621094 278.24609375 541.42578125 C278.06618896 542.11325439 277.88628418 542.80072754 277.70092773 543.5090332 C277.0625 545.375 277.0625 545.375 275.0625 548.375 C274.77375 549.24125 274.485 550.1075 274.1875 551 C270.89557325 560.87578024 265.79165429 570.12649211 261.0625 579.375 C260.58296875 580.31730469 260.1034375 581.25960937 259.609375 582.23046875 C257.26044367 586.66816496 254.88288886 590.02051222 251.0625 593.375 C250.29873047 594.07302734 250.29873047 594.07302734 249.51953125 594.78515625 C245.46970752 598.375 245.46970752 598.375 242.0625 598.375 C242.0625 599.035 242.0625 599.695 242.0625 600.375 C241.299375 600.684375 240.53625 600.99375 239.75 601.3125 C236.01911958 604.17573381 235.74229731 607.11406229 234.73828125 611.5859375 C234.0625 614.375 234.0625 614.375 233.04296875 616.8515625 C231.93929771 619.69208638 231.53791901 622.36778608 231.0625 625.375 C228.82405448 633.97587399 226.39424699 642.65920779 223.0324707 650.89990234 C221.78641231 655.3641347 221.7956415 659.42761686 221.83203125 664.0390625 C221.83212692 665.02417313 221.8322226 666.00928375 221.83232117 667.02424622 C221.83610676 670.34961071 221.85527657 673.67469438 221.875 677 C221.88194274 679.3633614 221.88844005 681.72672414 221.89453125 684.09008789 C222.02321517 720.51961737 222.57192121 756.9489332 223.0625 793.375 C223.67987534 793.43753464 224.29725067 793.50006927 224.93333435 793.5644989 C225.74351517 793.64980362 226.55369598 793.73510834 227.38842773 793.82299805 C228.19142807 793.90615768 228.99442841 793.98931732 229.82176208 794.07499695 C232.45695435 794.42781185 234.68539898 795.13717435 237.125 796.1875 C238.38376953 796.72890625 238.38376953 796.72890625 239.66796875 797.28125 C240.45816406 797.6421875 241.24835937 798.003125 242.0625 798.375 C242.71863281 798.6740625 243.37476563 798.973125 244.05078125 799.28125 C264.01124555 808.86888502 282.85783621 822.04959796 295.41015625 840.515625 C299.35681463 844.95678195 304.28472677 847.02407141 309.8125 848.875 C317.49125751 851.51784624 324.95438965 854.37443097 332.3125 857.8125 C337.68560927 860.29356745 343.18849474 862.24067899 348.7734375 864.1875 C352.24720711 865.4416876 355.58142859 866.87070838 358.93359375 868.4140625 C362.0493067 869.820421 365.22750807 871.05670072 368.40625 872.3125 C371.24323867 873.44729547 374.05893318 874.62678765 376.875 875.8125 C382.19940573 878.0406852 387.56916894 880.12859077 392.9609375 882.1875 C398.8246122 884.43253414 404.65631534 886.71781549 410.375 889.3125 C415.13246882 891.4558826 419.99148114 893.30099282 424.8671875 895.15625 C434.3305774 898.76575813 443.68533085 902.65283072 453 906.62890625 C458.34434993 908.89599086 463.7008582 910.97486431 469.1875 912.875 C473.25066221 914.29732832 477.07469475 915.79298295 480.875 917.8125 C485.97996715 920.49976819 491.30216729 922.28310798 496.74658203 924.14208984 C501.75924571 925.86917932 506.52481864 927.88079287 511.31640625 930.15625 C515.70442396 932.10370594 520.24274279 933.60817287 524.7734375 935.1875 C528.24720711 936.4416876 531.58142859 937.87070838 534.93359375 939.4140625 C538.0493067 940.820421 541.22750807 942.05670072 544.40625 943.3125 C547.24323867 944.44729547 550.05893318 945.62678765 552.875 946.8125 C558.19940573 949.0406852 563.56916894 951.12859077 568.9609375 953.1875 C574.71929675 955.39221185 580.45403232 957.62238687 586.0625 960.1875 C591.37571923 962.58458292 596.82088105 964.63528735 602.2578125 966.73095703 C607.67154424 968.82170791 613.04191526 970.9956965 618.38671875 973.2578125 C621.76911343 974.670024 625.18561403 975.98706936 628.61328125 977.28515625 C634.88273204 980.07491186 639.64716548 983.47762008 644.5625 988.1875 C645.412677 988.98969971 645.412677 988.98969971 646.2800293 989.80810547 C647.880819 991.32362698 649.47217204 992.84851926 651.0625 994.375 C651.75988281 995.03113281 652.45726562 995.68726563 653.17578125 996.36328125 C657.9260186 1000.93879722 662.26570069 1005.98058644 666.0625 1011.375 C666.0625 1012.035 666.0625 1012.695 666.0625 1013.375 C667.0525 1013.705 668.0425 1014.035 669.0625 1014.375 C670.4375 1016.4375 670.4375 1016.4375 672.0625 1019.375 C673.39103023 1021.45756089 674.7306206 1023.53260199 676.07421875 1025.60546875 C677.0625 1027.375 677.0625 1027.375 677.0625 1029.375 C677.7225 1029.375 678.3825 1029.375 679.0625 1029.375 C679.0625 1105.605 679.0625 1181.835 679.0625 1260.375 C256.6625 1260.375 -165.7375 1260.375 -600.9375 1260.375 C-600.9375 1013.375 -600.9375 1013.375 -595.9375 1008.375 C-594.99081161 1007.19481206 -594.05275954 1006.0076254 -593.125 1004.8125 C-587.43403512 998.22098683 -579.98400905 993.40338886 -572.9375 988.375 C-571.64199219 987.43914062 -571.64199219 987.43914062 -570.3203125 986.484375 C-564.52982772 982.45436728 -558.28519122 979.42483138 -551.9375 976.375 C-551.22207031 975.98828125 -550.50664063 975.6015625 -549.76953125 975.203125 C-547.9375 974.375 -547.9375 974.375 -544.9375 974.375 C-544.9375 973.715 -544.9375 973.055 -544.9375 972.375 C-543.48730469 971.81232422 -543.48730469 971.81232422 -542.0078125 971.23828125 C-535.2168397 968.57767481 -528.6077477 965.81569165 -522.125 962.45703125 C-519.49532592 961.15628175 -516.8189769 960.16666783 -514.05859375 959.18359375 C-510.53496679 957.84033264 -507.1444006 956.20643893 -503.72265625 954.625 C-501.17192928 953.4802137 -498.60831813 952.44230955 -496 951.4375 C-491.17448078 949.54693323 -486.62120444 947.23279805 -482.0078125 944.87890625 C-479.02281589 943.41678959 -476.01654108 942.12510676 -472.9375 940.875 C-467.7419755 938.76283252 -462.76935641 936.33673451 -457.76953125 933.80078125 C-455.17474432 932.49444025 -452.573481 931.22092082 -449.9375 930 C-448.9165625 929.52433594 -448.9165625 929.52433594 -447.875 929.0390625 C-445.9375 928.375 -445.9375 928.375 -441.9375 928.375 C-441.9375 927.715 -441.9375 927.055 -441.9375 926.375 C-441.31746094 926.09527344 -440.69742188 925.81554687 -440.05859375 925.52734375 C-435.26192667 923.35592677 -430.47647198 921.16409566 -425.7109375 918.92504883 C-418.5506519 915.56104763 -411.34719093 912.30784792 -404.10327148 909.12768555 C-400.87975109 907.70762452 -397.72620032 906.26527245 -394.59765625 904.640625 C-391.9375 903.375 -391.9375 903.375 -388.9375 903.375 C-388.9375 902.715 -388.9375 902.055 -388.9375 901.375 C-387.803125 900.88 -386.66875 900.385 -385.5 899.875 C-380.15783398 897.50163582 -374.87401571 895.00888802 -369.58886719 892.51196289 C-366.06284938 890.84613073 -362.53536985 889.18438366 -358.99609375 887.546875 C-352.82021667 884.68836722 -346.69291307 881.76937851 -340.625 878.6875 C-326.09881757 871.375 -326.09881757 871.375 -320.9375 871.375 C-320.9375 870.715 -320.9375 870.055 -320.9375 869.375 C-319.52210938 868.82972656 -319.52210938 868.82972656 -318.078125 868.2734375 C-310.82821863 865.44717062 -303.81013761 862.42438812 -296.87890625 858.87109375 C-281.70085284 851.15104799 -265.41362961 843.8372851 -248.9375 839.375 C-248.9375 838.715 -248.9375 838.055 -248.9375 837.375 C-247.50390625 836.04980469 -247.50390625 836.04980469 -245.5 834.546875 C-244.76910156 833.99386719 -244.03820312 833.44085937 -243.28515625 832.87109375 C-242.51042969 832.29488281 -241.73570312 831.71867188 -240.9375 831.125 C-240.19371094 830.56425781 -239.44992187 830.00351562 -238.68359375 829.42578125 C-237.18588754 828.29794335 -235.68456861 827.17488705 -234.1796875 826.05664062 C-232.67230369 824.92610277 -231.17754394 823.77855365 -229.6953125 822.61523438 C-228.99148438 822.06673828 -228.28765625 821.51824219 -227.5625 820.953125 C-226.93601562 820.4571582 -226.30953125 819.96119141 -225.6640625 819.45019531 C-223.9375 818.375 -223.9375 818.375 -220.9375 818.375 C-220.9375 817.715 -220.9375 817.055 -220.9375 816.375 C-204.12851124 807.10533708 -204.12851124 807.10533708 -198.9375 805.375 C-198.6075 804.715 -198.2775 804.055 -197.9375 803.375 C-193.22692376 798.4164987 -188.6894773 794.82185228 -181.9375 793.375 C-182.2675 792.385 -182.5975 791.395 -182.9375 790.375 C-182.28941436 789.03253688 -181.61927416 787.70067199 -180.9375 786.375 C-179.97380169 781.78992204 -179.77064299 777.29331323 -179.73217773 772.62548828 C-179.72227814 771.87358719 -179.71237854 771.1216861 -179.70217896 770.34700012 C-179.67077605 767.87980214 -179.6458911 765.41258496 -179.62109375 762.9453125 C-179.60050587 761.22752401 -179.57950893 759.50974038 -179.55812073 757.79196167 C-179.5030894 753.28426055 -179.45359708 748.77651515 -179.40527344 744.26873779 C-179.3549196 739.66349373 -179.2993062 735.05831349 -179.24414062 730.453125 C-179.13679092 721.42713793 -179.03529504 712.4010953 -178.9375 703.375 C-179.5975 703.045 -180.2575 702.715 -180.9375 702.375 C-180.2775 702.375 -179.6175 702.375 -178.9375 702.375 C-179.2675 701.715 -179.5975 701.055 -179.9375 700.375 C-180.15078439 698.39378799 -180.30744554 696.40637945 -180.4375 694.41796875 C-180.51911377 693.17370117 -180.60072754 691.92943359 -180.68481445 690.64746094 C-180.72595367 689.98194214 -180.7670929 689.31642334 -180.80947876 688.6307373 C-180.93847405 686.54676384 -181.07493297 684.46336109 -181.21166992 682.37988281 C-181.66020363 675.33667905 -181.99332135 668.31082777 -182.11328125 661.25390625 C-182.15098633 659.32865112 -182.15098633 659.32865112 -182.18945312 657.36450195 C-182.22874901 654.93750551 -182.24815575 652.5100749 -182.24414062 650.08276367 C-182.37877828 642.04919008 -184.25266975 636.45021546 -187.9375 629.375 C-189.25802202 626.39140306 -189.9375 624.66197952 -189.9375 621.375 C-190.66839844 621.10429688 -191.39929688 620.83359375 -192.15234375 620.5546875 C-197.94784556 618.09993077 -203.91842034 614.26779263 -207.9375 609.375 C-207.9375 608.715 -207.9375 608.055 -207.9375 607.375 C-208.55625 607.1275 -209.175 606.88 -209.8125 606.625 C-212.37819706 605.11576644 -212.72720867 604.04812377 -213.9375 601.375 C-214.2675 600.67761719 -214.5975 599.98023438 -214.9375 599.26171875 C-217.01561543 594.69148832 -218.65169762 590.24268045 -219.9375 585.375 C-220.59642646 583.37243655 -221.26439214 581.3728414 -221.9375 579.375 C-222.3396875 578.14523437 -222.741875 576.91546875 -223.15625 575.6484375 C-223.58330016 574.34894743 -224.01038389 573.0494684 -224.4375 571.75 C-224.65019531 571.09515625 -224.86289062 570.4403125 -225.08203125 569.765625 C-225.95388681 567.1233143 -226.83079017 564.58481459 -228.09375 562.1015625 C-228.9375 560.375 -228.9375 560.375 -228.9375 557.375 C-229.5975 557.375 -230.2575 557.375 -230.9375 557.375 C-235.20480216 548.99219695 -238.92615704 540.991506 -241.19140625 531.828125 C-241.87530829 529.15565045 -241.87530829 529.15565045 -243.9375 526.375 C-243.6075 525.385 -243.2775 524.395 -242.9375 523.375 C-243.32292743 521.2148806 -243.79431353 519.06967094 -244.3125 516.9375 C-245.37617175 512.31717584 -246.11238047 507.98407774 -246.3125 503.25 C-246.75218856 496.61949652 -249.16916546 491.34349842 -251.9375 485.375 C-252.84311783 483.25415142 -253.7391547 481.12918305 -254.625 479 C-255.21861328 477.59621094 -255.21861328 477.59621094 -255.82421875 476.1640625 C-256.59838255 474.22457844 -257.30490897 472.25728843 -257.95703125 470.2734375 C-258.83725415 467.45327647 -258.83725415 467.45327647 -260.0078125 465.234375 C-261.27739254 462.69521492 -261.72504122 460.04480215 -262.30078125 457.28125 C-263.27287082 452.84422767 -264.40825556 448.44935905 -265.52880859 444.04785156 C-268.12103469 433.80393398 -269.17618418 424.60242372 -265.9375 414.375 C-265.75445312 413.72273438 -265.57140625 413.07046875 -265.3828125 412.3984375 C-264.75 410.5 -264.75 410.5 -262.9375 407.375 C-259.25 405.9375 -259.25 405.9375 -255.9375 405.375 C-255.9375 404.715 -255.9375 404.055 -255.9375 403.375 C-252.9675 403.045 -249.9975 402.715 -246.9375 402.375 C-247.618125 400.6115625 -247.618125 400.6115625 -248.3125 398.8125 C-250.31457929 392.78746326 -250.99255722 386.66799919 -251.70800781 380.37988281 C-251.92684623 378.46807313 -252.16222222 376.55817802 -252.3984375 374.6484375 C-252.83302372 371.09337976 -253.24201464 367.53679383 -253.64013672 363.97753906 C-253.84829117 362.15576033 -254.06410102 360.33484747 -254.28564453 358.51464844 C-256.83483606 337.51622328 -257.80987639 316.5324177 -258.61206055 295.40698242 C-258.81110942 290.23681551 -259.05492175 285.07186682 -259.34182739 279.90586853 C-259.99367585 268.0205968 -260.18059052 256.15210634 -260.1875 244.25 C-260.18817474 243.19071289 -260.18884949 242.13142578 -260.18954468 241.04003906 C-260.1727178 224.12634879 -259.67307696 207.2628367 -258.75 190.375 C-258.69968628 189.34276306 -258.64937256 188.31052612 -258.59753418 187.24700928 C-257.77879875 170.95613129 -255.81795971 155.00030966 -247.75 140.5 C-247.40775391 139.85160156 -247.06550781 139.20320312 -246.71289062 138.53515625 C-245.79997366 136.80859096 -244.86969793 135.09123195 -243.9375 133.375 C-243.2640437 132.04508315 -242.59338176 130.71367148 -241.9375 129.375 C-241.2775 129.375 -240.6175 129.375 -239.9375 129.375 C-239.2775 127.725 -238.6175 126.075 -237.9375 124.375 C-237.2775 124.375 -236.6175 124.375 -235.9375 124.375 C-235.69644531 123.64410156 -235.45539063 122.91320312 -235.20703125 122.16015625 C-232.32134894 115.82941322 -225.5834689 110.31006923 -219.9375 106.375 C-219.2775 106.375 -218.6175 106.375 -217.9375 106.375 C-217.9375 105.715 -217.9375 105.055 -217.9375 104.375 C-217.298125 104.271875 -216.65875 104.16875 -216 104.0625 C-214.9790625 103.7221875 -214.9790625 103.7221875 -213.9375 103.375 C-213.6075 102.385 -213.2775 101.395 -212.9375 100.375 C-211.4140625 99.20703125 -211.4140625 99.20703125 -209.5625 98.1875 C-208.95664062 97.84332031 -208.35078125 97.49914062 -207.7265625 97.14453125 C-205.9375 96.375 -205.9375 96.375 -202.9375 96.375 C-202.6075 95.385 -202.2775 94.395 -201.9375 93.375 C-197.60571752 91.16664031 -193.79495385 89.96737242 -188.9375 89.375 C-188.6075 88.385 -188.2775 87.395 -187.9375 86.375 C-186.1875 85.53125 -186.1875 85.53125 -183.9375 84.875 C-183.12410156 84.62878906 -182.31070312 84.38257812 -181.47265625 84.12890625 C-180.63605469 83.88011719 -179.79945313 83.63132812 -178.9375 83.375 C-177.41503561 82.85895389 -175.89413918 82.33825426 -174.375 81.8125 C-162.88684957 78.00316565 -162.88684957 78.00316565 -156.9375 78.375 C-156.6075 77.715 -156.2775 77.055 -155.9375 76.375 C-155.2775 76.045 -154.6175 75.715 -153.9375 75.375 C-153.57726465 72.83496455 -153.57726465 72.83496455 -153.5 69.75 C-152.13242553 48.61054377 -145.68966353 33.89817654 -129.91796875 19.7734375 C-127.9375 18.375 -127.9375 18.375 -124.9375 18.375 C-124.9375 17.715 -124.9375 17.055 -124.9375 16.375 C-114.4654583 10.8438381 -105.82995996 7.95855556 -93.9375 7.375 C-93.9375 6.715 -93.9375 6.055 -93.9375 5.375 C-88.08461813 4.21272559 -82.41896331 3.23828084 -76.4375 3.375 C-72.01235281 3.46086961 -67.74340072 3.20712683 -63.35261536 2.72381592 C-55.00867935 1.80589246 -46.71028235 1.14271641 -38.3203125 0.83203125 C-37.24023422 0.79109344 -36.16015594 0.75015564 -35.04734802 0.70797729 C-23.3664894 0.28743147 -11.68825939 0.0489329 0 0 Z M220.0625 720.375 C220.0625 726.975 220.0625 733.575 220.0625 740.375 C220.3925 740.375 220.7225 740.375 221.0625 740.375 C221.0625 733.775 221.0625 727.175 221.0625 720.375 C220.7325 720.375 220.4025 720.375 220.0625 720.375 Z M220.0625 742.375 C220.0625 755.245 220.0625 768.115 220.0625 781.375 C220.3925 781.375 220.7225 781.375 221.0625 781.375 C221.0625 768.505 221.0625 755.635 221.0625 742.375 C220.7325 742.375 220.4025 742.375 220.0625 742.375 Z M220.0625 782.375 C221.0625 786.375 221.0625 786.375 221.0625 786.375 Z " fill="#EFBA91" transform="translate(600.9375,19.625)"/>
<path d="M0 0 C1.09326599 -0.00489441 2.18653198 -0.00978882 3.31292725 -0.01483154 C24.41475585 -0.05356457 44.67408403 1.83863498 65.265625 6.54296875 C68.92366402 7.49946404 68.92366402 7.49946404 72.1875 7.3125 C75.27768927 7.37967803 77.18768816 8.27675573 79.9453125 9.58203125 C83.57984696 10.94330523 87.38688022 11.33607321 91.2109375 11.91015625 C94.59157355 12.46124624 97.78041585 13.40253062 101.0625 14.375 C102.54260048 14.68884012 104.02612291 14.98673548 105.51171875 15.2734375 C109.36499632 16.03033131 113.20572961 16.82961133 117.04296875 17.6640625 C118.06197266 17.88320313 119.08097656 18.10234375 120.13085938 18.328125 C122.22309991 18.77880173 124.31424439 19.23459505 126.40429688 19.6953125 C131.77286113 20.84060621 136.58763164 21.49258107 142.0625 21.375 C143.74458635 22.34883946 145.40988161 23.35195052 147.0625 24.375 C148.4477053 24.73166963 149.84589732 25.03954834 151.25 25.3125 C166.88502276 28.45508763 183.9815926 38.2452126 196.0625 48.375 C196.0625 49.035 196.0625 49.695 196.0625 50.375 C197.3825 50.705 198.7025 51.035 200.0625 51.375 C200.0625 52.035 200.0625 52.695 200.0625 53.375 C200.63355469 53.62894531 201.20460938 53.88289063 201.79296875 54.14453125 C213.9186094 60.71867377 228.13588347 76.17903968 236.0625 87.375 C236.0625 88.035 236.0625 88.695 236.0625 89.375 C237.0525 89.705 238.0425 90.035 239.0625 90.375 C243.0625 94.83214286 243.0625 94.83214286 243.0625 97.375 C244.0525 97.705 245.0425 98.035 246.0625 98.375 C247.45361328 99.81103516 247.45361328 99.81103516 248.8828125 101.6640625 C249.41374512 102.35081055 249.94467773 103.03755859 250.49169922 103.74511719 C251.05131348 104.48922852 251.61092773 105.23333984 252.1875 106 C253.05592529 107.14710449 253.05592529 107.14710449 253.94189453 108.31738281 C259.20259096 115.37345415 263.77738779 122.69653645 268.0625 130.375 C268.71089844 131.52097656 269.35929688 132.66695312 270.02734375 133.84765625 C273.06225553 139.33359615 275.81986955 144.79392496 278.03515625 150.66015625 C279.0645364 153.38038137 280.16495677 156.06684442 281.2722168 158.75610352 C289.86266406 179.75055156 295.31901453 202.64162748 297.703125 225.1953125 C297.99512303 228.24092431 297.99512303 228.24092431 298.55029297 230.66357422 C301.18350805 244.60279573 300.21677814 259.50970333 300.19287109 273.61669922 C300.18755065 277.33956043 300.19282293 281.06229888 300.19921875 284.78515625 C300.20287576 296.39553038 300.09092544 307.98820023 299.6171875 319.58984375 C299.57844513 320.54258179 299.53970276 321.49531982 299.49978638 322.47692871 C299.23172636 328.3265795 298.73101896 334.12079837 298.0625 339.9375 C296.53461211 353.69168605 296.39090675 367.54987682 296.0625 381.375 C296.7225 381.375 297.3825 381.375 298.0625 381.375 C299.32282615 382.83432501 300.57658259 384.30068327 301.7734375 385.8125 C303.09029757 387.49434672 303.09029757 387.49434672 305.0625 389.125 C314.01752773 399.1994062 314.84441223 412.09084568 314.26220703 424.875 C313.20104909 438.15893321 308.36278809 451.43309482 302.1640625 463.125 C300.03886866 467.46582146 298.3210239 472.00951448 296.52734375 476.49609375 C295.0625 479.375 295.0625 479.375 292.0625 480.375 C292.10375 481.2825 292.145 482.19 292.1875 483.125 C292.0625 486.375 292.0625 486.375 291.1484375 488.078125 C289.59143695 491.37134919 289.141645 494.80924514 288.5625 498.375 C288.43359375 499.13031006 288.3046875 499.88562012 288.171875 500.66381836 C287.59451825 504.06481045 287.04837365 507.46817157 286.53125 510.87890625 C286.29921875 512.39291016 286.29921875 512.39291016 286.0625 513.9375 C285.93875 514.80503906 285.815 515.67257812 285.6875 516.56640625 C285.01339804 519.59565195 283.97843321 522.31451027 282.85595703 525.20043945 C281.20184241 529.73373142 280.08730343 534.43829152 278.86914062 539.10351562 C278.66353516 539.86986328 278.45792969 540.63621094 278.24609375 541.42578125 C278.06618896 542.11325439 277.88628418 542.80072754 277.70092773 543.5090332 C277.0625 545.375 277.0625 545.375 275.0625 548.375 C274.77375 549.24125 274.485 550.1075 274.1875 551 C270.89557325 560.87578024 265.79165429 570.12649211 261.0625 579.375 C260.58296875 580.31730469 260.1034375 581.25960937 259.609375 582.23046875 C257.26044367 586.66816496 254.88288886 590.02051222 251.0625 593.375 C250.29873047 594.07302734 250.29873047 594.07302734 249.51953125 594.78515625 C245.46970752 598.375 245.46970752 598.375 242.0625 598.375 C242.0625 599.035 242.0625 599.695 242.0625 600.375 C241.299375 600.684375 240.53625 600.99375 239.75 601.3125 C236.01911958 604.17573381 235.74229731 607.11406229 234.73828125 611.5859375 C234.0625 614.375 234.0625 614.375 233.04296875 616.8515625 C231.93929771 619.69208638 231.53791901 622.36778608 231.0625 625.375 C228.79662492 634.08126776 226.17640551 642.70496664 223.03309822 651.13611794 C222.06171248 654.37762796 221.81576363 656.8906223 221.82199097 660.25961304 C221.81924164 661.41218597 221.81649231 662.56475891 221.81365967 663.7522583 C221.82085022 665.00238708 221.82804077 666.25251587 221.83544922 667.54052734 C221.83601387 668.88129671 221.83569572 670.22206669 221.83456421 671.56283569 C221.83399179 675.19051847 221.84572806 678.81806825 221.85971212 682.4457202 C221.87223801 686.24136393 221.87339145 690.03701091 221.87576294 693.83267212 C221.88197225 701.01485979 221.89837563 708.19698637 221.91846192 715.37914717 C221.94083801 723.55808219 221.95181865 731.73702017 221.96185279 739.91597819 C221.98274235 756.73568785 222.01790764 773.55533612 222.0625 790.375 C221.4025 790.045 220.7425 789.715 220.0625 789.375 C220.06694122 788.51500397 220.07138245 787.65500793 220.07595825 786.76895142 C220.11598445 778.67570721 220.14645862 770.58249611 220.16612434 762.4891758 C220.17657446 758.32802747 220.19075592 754.16696074 220.21337891 750.00585938 C220.23506371 745.99233571 220.24705937 741.97889067 220.25225449 737.96531296 C220.25595811 736.43185564 220.26319011 734.89840276 220.27396011 733.36497879 C220.28841729 731.22190199 220.2904804 729.07915264 220.28955078 726.93603516 C220.293992 725.71469879 220.29843323 724.49336243 220.30300903 723.23501587 C220.36124311 720.2434993 220.36124311 720.2434993 218.0625 718.375 C217.71171387 718.96700195 217.36092773 719.55900391 216.99951172 720.16894531 C206.18551021 738.34991967 195.00365432 756.38914304 181.0625 772.375 C180.39605469 773.15101563 179.72960937 773.92703125 179.04296875 774.7265625 C176.76294073 777.3238486 174.42937092 779.85645181 172.0625 782.375 C171.53414551 782.93735352 171.00579102 783.49970703 170.46142578 784.07910156 C151.55630638 804.03008127 130.28090597 817.94807644 104.0625 826.375 C102.86882812 826.76300781 101.67515625 827.15101563 100.4453125 827.55078125 C80.63086778 833.36930867 59.29278052 835.52356091 38.70703125 835.54296875 C37.44775314 835.54629715 36.18847504 835.54962555 34.89103699 835.55305481 C32.23274178 835.55809484 29.57454892 835.5608997 26.91625977 835.56030273 C22.9317252 835.56018257 18.94737985 835.58060153 14.96289062 835.59960938 C-35.17356135 835.71136133 -82.5285856 828.60326541 -119.41992188 791.90039062 C-119.92072266 791.39701172 -120.42152344 790.89363281 -120.9375 790.375 C-121.44087891 789.87419922 -121.94425781 789.37339844 -122.46289062 788.85742188 C-142.93835023 768.27682512 -156.80691019 741.87026871 -170.1027832 716.32495117 C-170.692771 715.19935791 -171.28275879 714.07376465 -171.890625 712.9140625 C-172.40786133 711.91584473 -172.92509766 710.91762695 -173.45800781 709.88916016 C-175.54188753 706.34794014 -177.5226136 704.65159093 -180.9375 702.375 C-180.2775 702.375 -179.6175 702.375 -178.9375 702.375 C-179.2675 701.715 -179.5975 701.055 -179.9375 700.375 C-180.15078439 698.39378799 -180.30744554 696.40637945 -180.4375 694.41796875 C-180.51911377 693.17370117 -180.60072754 691.92943359 -180.68481445 690.64746094 C-180.72595367 689.98194214 -180.7670929 689.31642334 -180.80947876 688.6307373 C-180.93847405 686.54676384 -181.07493297 684.46336109 -181.21166992 682.37988281 C-181.66020363 675.33667905 -181.99332135 668.31082777 -182.11328125 661.25390625 C-182.13841797 659.97040283 -182.16355469 658.68689941 -182.18945312 657.36450195 C-182.22874901 654.93750551 -182.24815575 652.5100749 -182.24414062 650.08276367 C-182.37877828 642.04919008 -184.25266975 636.45021546 -187.9375 629.375 C-189.25802202 626.39140306 -189.9375 624.66197952 -189.9375 621.375 C-190.66839844 621.10429688 -191.39929688 620.83359375 -192.15234375 620.5546875 C-197.94784556 618.09993077 -203.91842034 614.26779263 -207.9375 609.375 C-207.9375 608.715 -207.9375 608.055 -207.9375 607.375 C-208.55625 607.1275 -209.175 606.88 -209.8125 606.625 C-212.37819706 605.11576644 -212.72720867 604.04812377 -213.9375 601.375 C-214.2675 600.67761719 -214.5975 599.98023438 -214.9375 599.26171875 C-217.01561543 594.69148832 -218.65169762 590.24268045 -219.9375 585.375 C-220.59642646 583.37243655 -221.26439214 581.3728414 -221.9375 579.375 C-222.3396875 578.14523437 -222.741875 576.91546875 -223.15625 575.6484375 C-223.58330016 574.34894743 -224.01038389 573.0494684 -224.4375 571.75 C-224.65019531 571.09515625 -224.86289062 570.4403125 -225.08203125 569.765625 C-225.95388681 567.1233143 -226.83079017 564.58481459 -228.09375 562.1015625 C-228.9375 560.375 -228.9375 560.375 -228.9375 557.375 C-229.5975 557.375 -230.2575 557.375 -230.9375 557.375 C-235.20480216 548.99219695 -238.92615704 540.991506 -241.19140625 531.828125 C-241.87530829 529.15565045 -241.87530829 529.15565045 -243.9375 526.375 C-243.6075 525.385 -243.2775 524.395 -242.9375 523.375 C-243.32292743 521.2148806 -243.79431353 519.06967094 -244.3125 516.9375 C-245.37617175 512.31717584 -246.11238047 507.98407774 -246.3125 503.25 C-246.75218856 496.61949652 -249.16916546 491.34349842 -251.9375 485.375 C-252.84311783 483.25415142 -253.7391547 481.12918305 -254.625 479 C-255.21861328 477.59621094 -255.21861328 477.59621094 -255.82421875 476.1640625 C-256.59838255 474.22457844 -257.30490897 472.25728843 -257.95703125 470.2734375 C-258.83725415 467.45327647 -258.83725415 467.45327647 -260.0078125 465.234375 C-261.27739254 462.69521492 -261.72504122 460.04480215 -262.30078125 457.28125 C-263.27287082 452.84422767 -264.40825556 448.44935905 -265.52880859 444.04785156 C-268.12103469 433.80393398 -269.17618418 424.60242372 -265.9375 414.375 C-265.75445312 413.72273438 -265.57140625 413.07046875 -265.3828125 412.3984375 C-264.75 410.5 -264.75 410.5 -262.9375 407.375 C-259.25 405.9375 -259.25 405.9375 -255.9375 405.375 C-255.9375 404.715 -255.9375 404.055 -255.9375 403.375 C-252.9675 403.045 -249.9975 402.715 -246.9375 402.375 C-247.39125 401.199375 -247.845 400.02375 -248.3125 398.8125 C-250.31457929 392.78746326 -250.99255722 386.66799919 -251.70800781 380.37988281 C-251.92684623 378.46807313 -252.16222222 376.55817802 -252.3984375 374.6484375 C-252.83302372 371.09337976 -253.24201464 367.53679383 -253.64013672 363.97753906 C-253.84829117 362.15576033 -254.06410102 360.33484747 -254.28564453 358.51464844 C-256.83483606 337.51622328 -257.80987639 316.5324177 -258.61206055 295.40698242 C-258.81110942 290.23681551 -259.05492175 285.07186682 -259.34182739 279.90586853 C-259.99367585 268.0205968 -260.18059052 256.15210634 -260.1875 244.25 C-260.18851212 242.66106934 -260.18851212 242.66106934 -260.18954468 241.04003906 C-260.1727178 224.12634879 -259.67307696 207.2628367 -258.75 190.375 C-258.69968628 189.34276306 -258.64937256 188.31052612 -258.59753418 187.24700928 C-257.77879875 170.95613129 -255.81795971 155.00030966 -247.75 140.5 C-247.40775391 139.85160156 -247.06550781 139.20320312 -246.71289062 138.53515625 C-245.79997366 136.80859096 -244.86969793 135.09123195 -243.9375 133.375 C-243.2640437 132.04508315 -242.59338176 130.71367148 -241.9375 129.375 C-241.2775 129.375 -240.6175 129.375 -239.9375 129.375 C-239.2775 127.725 -238.6175 126.075 -237.9375 124.375 C-237.2775 124.375 -236.6175 124.375 -235.9375 124.375 C-235.69644531 123.64410156 -235.45539063 122.91320312 -235.20703125 122.16015625 C-232.32134894 115.82941322 -225.5834689 110.31006923 -219.9375 106.375 C-219.2775 106.375 -218.6175 106.375 -217.9375 106.375 C-217.9375 105.715 -217.9375 105.055 -217.9375 104.375 C-217.298125 104.271875 -216.65875 104.16875 -216 104.0625 C-215.319375 103.835625 -214.63875 103.60875 -213.9375 103.375 C-213.4425 101.89 -213.4425 101.89 -212.9375 100.375 C-211.4140625 99.20703125 -211.4140625 99.20703125 -209.5625 98.1875 C-208.95664062 97.84332031 -208.35078125 97.49914062 -207.7265625 97.14453125 C-205.9375 96.375 -205.9375 96.375 -202.9375 96.375 C-202.4425 94.89 -202.4425 94.89 -201.9375 93.375 C-197.60571752 91.16664031 -193.79495385 89.96737242 -188.9375 89.375 C-188.4425 87.89 -188.4425 87.89 -187.9375 86.375 C-186.1875 85.53125 -186.1875 85.53125 -183.9375 84.875 C-183.12410156 84.62878906 -182.31070313 84.38257812 -181.47265625 84.12890625 C-180.63605469 83.88011719 -179.79945313 83.63132812 -178.9375 83.375 C-177.41503561 82.85895389 -175.89413918 82.33825426 -174.375 81.8125 C-162.88684957 78.00316565 -162.88684957 78.00316565 -156.9375 78.375 C-156.6075 77.715 -156.2775 77.055 -155.9375 76.375 C-155.2775 76.045 -154.6175 75.715 -153.9375 75.375 C-153.57726465 72.83496455 -153.57726465 72.83496455 -153.5 69.75 C-152.13242553 48.61054377 -145.68966353 33.89817654 -129.91796875 19.7734375 C-127.9375 18.375 -127.9375 18.375 -124.9375 18.375 C-124.9375 17.715 -124.9375 17.055 -124.9375 16.375 C-114.4654583 10.8438381 -105.82995996 7.95855556 -93.9375 7.375 C-93.9375 6.715 -93.9375 6.055 -93.9375 5.375 C-88.08461813 4.21272559 -82.41896331 3.23828084 -76.4375 3.375 C-72.01235281 3.46086961 -67.74340072 3.20712683 -63.35261536 2.72381592 C-55.00867935 1.80589246 -46.71028235 1.14271641 -38.3203125 0.83203125 C-37.24023422 0.79109344 -36.16015594 0.75015564 -35.04734802 0.70797729 C-23.3664894 0.28743147 -11.68825939 0.0489329 0 0 Z " fill="#EFBA91" transform="translate(600.9375,19.625)"/>
<path d="M0 0 C7.04985167 0.45482914 12.58910733 2.07169666 19 5 C19.65613281 5.2990625 20.31226563 5.598125 20.98828125 5.90625 C40.94874555 15.49388502 59.79533621 28.67459796 72.34765625 47.140625 C76.29431463 51.58178195 81.22222677 53.64907141 86.75 55.5 C94.42875751 58.14284624 101.89188965 60.99943097 109.25 64.4375 C114.62310927 66.91856745 120.12599474 68.86567899 125.7109375 70.8125 C129.18470711 72.0666876 132.51892859 73.49570838 135.87109375 75.0390625 C138.9868067 76.445421 142.16500807 77.68170072 145.34375 78.9375 C148.18073867 80.07229547 150.99643318 81.25178765 153.8125 82.4375 C159.13690573 84.6656852 164.50666894 86.75359077 169.8984375 88.8125 C175.7621122 91.05753414 181.59381534 93.34281549 187.3125 95.9375 C192.06996882 98.0808826 196.92898114 99.92599282 201.8046875 101.78125 C211.2680774 105.39075813 220.62283085 109.27783072 229.9375 113.25390625 C235.28184993 115.52099086 240.6383582 117.59986431 246.125 119.5 C250.18816221 120.92232832 254.01219475 122.41798295 257.8125 124.4375 C262.91746715 127.12476819 268.23966729 128.90810798 273.68408203 130.76708984 C278.69674571 132.49417932 283.46231864 134.50579287 288.25390625 136.78125 C292.64192396 138.72870594 297.18024279 140.23317287 301.7109375 141.8125 C305.18470711 143.0666876 308.51892859 144.49570838 311.87109375 146.0390625 C314.9868067 147.445421 318.16500807 148.68170072 321.34375 149.9375 C324.18073867 151.07229547 326.99643318 152.25178765 329.8125 153.4375 C335.13690573 155.6656852 340.50666894 157.75359077 345.8984375 159.8125 C351.65679675 162.01721185 357.39153232 164.24738687 363 166.8125 C368.31321923 169.20958292 373.75838105 171.26028735 379.1953125 173.35595703 C384.60904424 175.44670791 389.97941526 177.6206965 395.32421875 179.8828125 C398.70661343 181.295024 402.12311403 182.61206936 405.55078125 183.91015625 C411.82023204 186.69991186 416.58466548 190.10262008 421.5 194.8125 C422.350177 195.61469971 422.350177 195.61469971 423.2175293 196.43310547 C424.818319 197.94862698 426.40967204 199.47351926 428 201 C429.04607422 201.98419922 429.04607422 201.98419922 430.11328125 202.98828125 C434.8635186 207.56379722 439.20320069 212.60558644 443 218 C443 218.66 443 219.32 443 220 C443.99 220.33 444.98 220.66 446 221 C447.375 223.0625 447.375 223.0625 449 226 C450.32853023 228.08256089 451.6681206 230.15760199 453.01171875 232.23046875 C454 234 454 234 454 236 C454.66 236 455.32 236 456 236 C456 312.23 456 388.46 456 467 C317.73 467 179.46 467 37 467 C36.6875 273.875 36.6875 273.875 36.61206055 212.94091797 C36.57548756 194.88416623 36.57548756 194.88416623 36.5349884 176.8274231 C36.51708343 168.7975491 36.50720644 160.76771521 36.50288391 152.73782349 C36.49786294 143.46261369 36.48243394 134.18748862 36.45451616 124.91231848 C36.44057371 120.17431241 36.43105974 115.43642428 36.43496072 110.69839644 C36.66455824 58.08401751 36.66455824 58.08401751 12.54638672 12.73095703 C11 11 11 11 9 8 C6.15766319 5.53165487 3.44412655 3.53072291 0 2 C0 1.34 0 0.68 0 0 Z " fill="#001422" transform="translate(824,813)"/>
<path d="M0 0 C0.99 0.33 1.98 0.66 3 1 C1.44064544 4.27234012 -0.4083169 7.29284111 -2.3125 10.375 C-16.59326334 34.9959841 -17.19669382 65.02741092 -15.13256836 92.66308594 C-14.98899642 94.67625615 -14.84543127 96.68942685 -14.7020812 98.70261288 C-14.54710619 100.8675573 -14.38983065 103.0323241 -14.23196602 105.19705963 C-13.70858911 112.38285738 -13.20293081 119.56991616 -12.69647825 126.7569232 C-12.57475755 128.48408532 -12.45288493 130.21123674 -12.33086646 131.93837786 C-10.84142553 153.03249148 -9.45590737 174.13325939 -8.08052111 195.23507118 C-7.87773512 198.34609173 -7.67472502 201.45709759 -7.47166061 204.56809998 C-6.70925821 216.25034 -5.94870286 227.93269955 -5.18915021 239.61512518 C-4.36006809 252.36585589 -3.52862556 265.11643268 -2.69723392 277.86701298 C-1.94436632 289.41365842 -1.19225916 300.96035211 -0.4425354 312.50720215 C-0.17286996 316.65910347 0.09687806 320.81099942 0.36669922 324.96289062 C0.43324731 325.98695479 0.49979539 327.01101896 0.56836009 328.06611538 C1.54356168 343.0652893 2.53261643 358.06350681 3.52931726 373.06126642 C3.95442078 379.46471563 4.3773269 385.86831038 4.80018026 392.27190852 C5.19941913 398.31367072 5.60233871 404.35517237 6.00810289 410.39649963 C6.25668252 414.11083475 6.50170644 417.82539832 6.74577403 421.54003239 C6.85849367 423.24445339 6.97267412 424.94877858 7.08850026 426.65299129 C7.24744213 428.99430701 7.40098789 431.3359221 7.55335999 433.67767334 C7.68355325 435.63010263 7.68355325 435.63010263 7.81637669 437.62197495 C8.05913344 443.40988471 8 449.20700162 8 455 C-126.31 455 -260.62 455 -399 455 C-399.103125 414.348125 -399.20625 373.69625 -399.3125 331.8125 C-399.35802002 318.9628833 -399.40354004 306.1132666 -399.45043945 292.87426758 C-399.47302246 277.21813965 -399.47302246 277.21813965 -399.47721863 269.89555359 C-399.48188864 264.7665146 -399.50026009 259.63767207 -399.52787781 254.50871277 C-399.56301998 247.97272289 -399.57247158 241.43703496 -399.56536138 234.90093172 C-399.56684887 232.49825389 -399.57681371 230.09556337 -399.59607565 227.69296229 C-399.62084088 224.45427761 -399.61499097 221.2170642 -399.60127258 217.97834778 C-399.61583591 217.03211894 -399.63039923 216.0858901 -399.64540386 215.11098766 C-399.59305106 210.53212217 -399.52916633 208.65107093 -396.55348492 204.98987865 C-395.71083489 204.3332187 -394.86818487 203.67655874 -394 203 C-393.05331161 201.81981206 -392.11525954 200.6326254 -391.1875 199.4375 C-385.49653512 192.84598683 -378.04650905 188.02838886 -371 183 C-369.70449219 182.06414062 -369.70449219 182.06414062 -368.3828125 181.109375 C-362.59232772 177.07936728 -356.34769122 174.04983138 -350 171 C-349.28457031 170.61328125 -348.56914062 170.2265625 -347.83203125 169.828125 C-346 169 -346 169 -343 169 C-343 168.34 -343 167.68 -343 167 C-341.54980469 166.43732422 -341.54980469 166.43732422 -340.0703125 165.86328125 C-333.2793397 163.20267481 -326.6702477 160.44069165 -320.1875 157.08203125 C-317.55782592 155.78128175 -314.8814769 154.79166783 -312.12109375 153.80859375 C-308.59746679 152.46533264 -305.2069006 150.83143893 -301.78515625 149.25 C-299.23442928 148.1052137 -296.67081813 147.06730955 -294.0625 146.0625 C-289.23698078 144.17193323 -284.68370444 141.85779805 -280.0703125 139.50390625 C-277.08531589 138.04178959 -274.07904108 136.75010676 -271 135.5 C-265.8044755 133.38783252 -260.83185641 130.96173451 -255.83203125 128.42578125 C-253.23724432 127.11944025 -250.635981 125.84592082 -248 124.625 C-247.319375 124.30789063 -246.63875 123.99078125 -245.9375 123.6640625 C-244 123 -244 123 -240 123 C-240 122.34 -240 121.68 -240 121 C-239.37996094 120.72027344 -238.75992188 120.44054687 -238.12109375 120.15234375 C-233.32442667 117.98092677 -228.53897198 115.78909566 -223.7734375 113.55004883 C-216.6131519 110.18604763 -209.40969093 106.93284792 -202.16577148 103.75268555 C-198.94225109 102.33262452 -195.78870032 100.89027245 -192.66015625 99.265625 C-190 98 -190 98 -187 98 C-187 97.34 -187 96.68 -187 96 C-185.865625 95.505 -184.73125 95.01 -183.5625 94.5 C-178.22033398 92.12663582 -172.93651571 89.63388802 -167.65136719 87.13696289 C-164.12534938 85.47113073 -160.59786985 83.80938366 -157.05859375 82.171875 C-150.88271667 79.31336722 -144.75541307 76.39437851 -138.6875 73.3125 C-124.16131757 66 -124.16131757 66 -119 66 C-119 65.34 -119 64.68 -119 64 C-117.58460938 63.45472656 -117.58460938 63.45472656 -116.140625 62.8984375 C-108.89071863 60.07217062 -101.87263761 57.04938812 -94.94140625 53.49609375 C-79.76335284 45.77604799 -63.47612961 38.4622851 -47 34 C-47 33.34 -47 32.68 -47 32 C-45.56640625 30.67480469 -45.56640625 30.67480469 -43.5625 29.171875 C-42.83160156 28.61886719 -42.10070312 28.06585937 -41.34765625 27.49609375 C-40.18556641 26.63177734 -40.18556641 26.63177734 -39 25.75 C-37.88431641 24.90888672 -37.88431641 24.90888672 -36.74609375 24.05078125 C-35.24838754 22.92294335 -33.74706861 21.79988705 -32.2421875 20.68164062 C-30.73480369 19.55110277 -29.24004394 18.40355365 -27.7578125 17.24023438 C-27.05398438 16.69173828 -26.35015625 16.14324219 -25.625 15.578125 C-24.99851562 15.0821582 -24.37203125 14.58619141 -23.7265625 14.07519531 C-22 13 -22 13 -19 13 C-19 12.34 -19 11.68 -19 11 C-12.7247293 7.53937278 -6.43415029 4.15637561 0 1 C0 0.67 0 0.34 0 0 Z " fill="#001422" transform="translate(399,825)"/>
<path d="M0 0 C1.09326599 -0.00489441 2.18653198 -0.00978882 3.31292725 -0.01483154 C24.41475585 -0.05356457 44.67408403 1.83863498 65.265625 6.54296875 C68.92366402 7.49946404 68.92366402 7.49946404 72.1875 7.3125 C75.27768927 7.37967803 77.18768816 8.27675573 79.9453125 9.58203125 C83.57984696 10.94330523 87.38688022 11.33607321 91.2109375 11.91015625 C94.59157355 12.46124624 97.78041585 13.40253062 101.0625 14.375 C102.54260048 14.68884012 104.02612291 14.98673548 105.51171875 15.2734375 C109.36499632 16.03033131 113.20572961 16.82961133 117.04296875 17.6640625 C118.06197266 17.88320313 119.08097656 18.10234375 120.13085938 18.328125 C122.22309991 18.77880173 124.31424439 19.23459505 126.40429688 19.6953125 C131.77286113 20.84060621 136.58763164 21.49258107 142.0625 21.375 C143.74458635 22.34883946 145.40988161 23.35195052 147.0625 24.375 C148.4477053 24.73166963 149.84589732 25.03954834 151.25 25.3125 C166.88502276 28.45508763 183.9815926 38.2452126 196.0625 48.375 C196.0625 49.035 196.0625 49.695 196.0625 50.375 C197.3825 50.705 198.7025 51.035 200.0625 51.375 C200.0625 52.035 200.0625 52.695 200.0625 53.375 C200.63355469 53.62894531 201.20460938 53.88289063 201.79296875 54.14453125 C213.9186094 60.71867377 228.13588347 76.17903968 236.0625 87.375 C236.0625 88.035 236.0625 88.695 236.0625 89.375 C237.0525 89.705 238.0425 90.035 239.0625 90.375 C243.0625 94.83214286 243.0625 94.83214286 243.0625 97.375 C244.0525 97.705 245.0425 98.035 246.0625 98.375 C247.45361328 99.81103516 247.45361328 99.81103516 248.8828125 101.6640625 C249.67921143 102.69418457 249.67921143 102.69418457 250.49169922 103.74511719 C251.05131348 104.48922852 251.61092773 105.23333984 252.1875 106 C253.05592529 107.14710449 253.05592529 107.14710449 253.94189453 108.31738281 C259.20259096 115.37345415 263.77738779 122.69653645 268.0625 130.375 C268.71089844 131.52097656 269.35929688 132.66695312 270.02734375 133.84765625 C273.06225553 139.33359615 275.81986955 144.79392496 278.03515625 150.66015625 C279.0645364 153.38038137 280.16495677 156.06684442 281.2722168 158.75610352 C289.86266406 179.75055156 295.31901453 202.64162748 297.703125 225.1953125 C297.99512303 228.24092431 297.99512303 228.24092431 298.55029297 230.66357422 C301.18350805 244.60279573 300.21677814 259.50970333 300.19287109 273.61669922 C300.18755065 277.33956043 300.19282293 281.06229888 300.19921875 284.78515625 C300.20287458 296.39163262 300.09115522 307.98039022 299.6171875 319.578125 C299.57844513 320.52929199 299.53970276 321.48045898 299.49978638 322.46044922 C299.22850572 328.3764162 298.7277216 334.24095366 298.0625 340.125 C296.98257075 349.79366649 296.67524831 359.44774624 296.4921875 369.17285156 C296.46382812 370.32366211 296.43546875 371.47447266 296.40625 372.66015625 C296.37821289 374.20521851 296.37821289 374.20521851 296.34960938 375.78149414 C296.0625 378.375 296.0625 378.375 294.0625 381.375 C291.12109375 381.859375 291.12109375 381.859375 287.5 382.125 C278.69601637 383.19953749 274.19436685 386.78481117 268.5 393.3125 C268.025625 393.993125 267.55125 394.67375 267.0625 395.375 C262.7082172 394.04431935 261.10172736 392.56505378 258.875 388.625 C258.38644531 387.78453125 257.89789062 386.9440625 257.39453125 386.078125 C254.36423884 379.9286753 253.56833368 374.1370472 252.984375 367.3984375 C252.79437771 365.36594157 252.60409838 363.333472 252.41357422 361.30102539 C252.26707428 359.69929977 252.26707428 359.69929977 252.11761475 358.06521606 C250.43676302 339.80196681 248.46039324 321.60400951 245.9375 303.4375 C245.81548218 302.55431091 245.69346436 301.67112183 245.56774902 300.76116943 C244.87607137 295.77877927 244.15835334 290.80088006 243.41964722 285.82525635 C243.04795813 283.27523355 242.69841232 280.72271244 242.34985352 278.16943359 C242.10754267 276.47614971 241.8646432 274.78294993 241.62109375 273.08984375 C241.52106049 272.32366226 241.42102722 271.55748077 241.31796265 270.76808167 C240.3289599 264.10462159 237.79557278 258.75285115 233.84765625 253.2578125 C233.40695801 252.63938477 232.96625977 252.02095703 232.51220703 251.38378906 C232.03380371 250.72088867 231.55540039 250.05798828 231.0625 249.375 C230.53124512 248.62186523 229.99999023 247.86873047 229.45263672 247.09277344 C222.14727395 236.76284417 214.42841028 226.8633257 206.0625 217.375 C205.32902344 216.53066406 204.59554688 215.68632812 203.83984375 214.81640625 C194.74036484 204.49485576 185.15157376 194.56560808 174.0625 186.375 C173.5247998 185.97684082 172.98709961 185.57868164 172.43310547 185.16845703 C155.60209915 172.76245991 138.46397132 163.34357237 118.0625 158.375 C117.38493652 158.20983887 116.70737305 158.04467773 116.00927734 157.87451172 C94.77968239 152.93371308 74.58331724 155.72056274 53.45376587 159.56306458 C41.23971911 161.77808768 29.4164737 162.6140607 17 162.625 C15.95611618 162.62601212 15.95611618 162.62601212 14.8911438 162.62704468 C-26.8621291 162.56341906 -69.53115797 152.41479737 -106.0859375 131.96484375 C-107.16383545 131.36478516 -108.2417334 130.76472656 -109.35229492 130.14648438 C-111.51451114 128.93480453 -113.66857829 127.70845346 -115.8137207 126.46679688 C-116.80718506 125.90927734 -117.80064941 125.35175781 -118.82421875 124.77734375 C-119.71326904 124.26679443 -120.60231934 123.75624512 -121.51831055 123.23022461 C-123.88004207 122.12746865 -123.88004207 122.12746865 -126.08349609 123.01977539 C-128.01263577 124.42992213 -129.28202869 125.74827336 -130.71484375 127.65625 C-131.22152588 128.32382324 -131.72820801 128.99139648 -132.25024414 129.67919922 C-132.78641357 130.40381348 -133.32258301 131.12842773 -133.875 131.875 C-134.44275146 132.63184082 -135.01050293 133.38868164 -135.59545898 134.16845703 C-137.38563034 136.56373936 -139.16227456 138.96862671 -140.9375 141.375 C-141.49211914 142.11975586 -142.04673828 142.86451172 -142.61816406 143.63183594 C-166.57448577 175.83518203 -185.58009542 210.9193307 -199.9375 248.375 C-200.42307373 249.63521973 -200.42307373 249.63521973 -200.91845703 250.92089844 C-210.24459994 275.56293238 -212.77861161 301.94159417 -214.0625 328.0625 C-214.10552246 328.8989505 -214.14854492 329.735401 -214.19287109 330.59719849 C-214.83913788 343.29534981 -215.02213728 355.9204729 -214.90112305 368.63427734 C-214.84909051 377.34029228 -215.3113772 385.87880545 -216.15185547 394.54077148 C-217.26397557 406.12684269 -217.58927397 417.74481685 -217.9375 429.375 C-218.5975 429.375 -219.2575 429.375 -219.9375 429.375 C-219.9375 428.715 -219.9375 428.055 -219.9375 427.375 C-220.9275 427.045 -221.9175 426.715 -222.9375 426.375 C-224.33211024 424.78075805 -225.65848751 423.12589338 -226.9375 421.4375 C-229.21183889 418.44381528 -230.78931862 416.47378759 -233.9375 414.375 C-233.9375 413.715 -233.9375 413.055 -233.9375 412.375 C-234.5975 412.375 -235.2575 412.375 -235.9375 412.375 C-236.37835938 411.93285156 -236.81921875 411.49070312 -237.2734375 411.03515625 C-239.79151794 408.5229868 -242.84233352 407.18656705 -245.9765625 405.55859375 C-247.9375 404.375 -247.9375 404.375 -248.9375 402.375 C-248.2775 402.375 -247.6175 402.375 -246.9375 402.375 C-247.39125 401.199375 -247.845 400.02375 -248.3125 398.8125 C-250.31457929 392.78746326 -250.99255722 386.66799919 -251.70800781 380.37988281 C-251.92684623 378.46807313 -252.16222222 376.55817802 -252.3984375 374.6484375 C-252.83302372 371.09337976 -253.24201464 367.53679383 -253.64013672 363.97753906 C-253.84829117 362.15576033 -254.06410102 360.33484747 -254.28564453 358.51464844 C-256.83483606 337.51622328 -257.80987639 316.5324177 -258.61206055 295.40698242 C-258.81110942 290.23681551 -259.05492175 285.07186682 -259.34182739 279.90586853 C-259.99367585 268.0205968 -260.18059052 256.15210634 -260.1875 244.25 C-260.18817474 243.19071289 -260.18884949 242.13142578 -260.18954468 241.04003906 C-260.1727178 224.12634879 -259.67307696 207.2628367 -258.75 190.375 C-258.69968628 189.34276306 -258.64937256 188.31052612 -258.59753418 187.24700928 C-257.77879875 170.95613129 -255.81795971 155.00030966 -247.75 140.5 C-247.40775391 139.85160156 -247.06550781 139.20320312 -246.71289062 138.53515625 C-245.79997366 136.80859096 -244.86969793 135.09123195 -243.9375 133.375 C-243.2640437 132.04508315 -242.59338176 130.71367148 -241.9375 129.375 C-241.2775 129.375 -240.6175 129.375 -239.9375 129.375 C-239.2775 127.725 -238.6175 126.075 -237.9375 124.375 C-237.2775 124.375 -236.6175 124.375 -235.9375 124.375 C-235.69644531 123.64410156 -235.45539063 122.91320312 -235.20703125 122.16015625 C-232.32134894 115.82941322 -225.5834689 110.31006923 -219.9375 106.375 C-219.2775 106.375 -218.6175 106.375 -217.9375 106.375 C-217.9375 105.715 -217.9375 105.055 -217.9375 104.375 C-217.298125 104.271875 -216.65875 104.16875 -216 104.0625 C-215.319375 103.835625 -214.63875 103.60875 -213.9375 103.375 C-213.4425 101.89 -213.4425 101.89 -212.9375 100.375 C-211.4140625 99.20703125 -211.4140625 99.20703125 -209.5625 98.1875 C-208.95664062 97.84332031 -208.35078125 97.49914062 -207.7265625 97.14453125 C-205.9375 96.375 -205.9375 96.375 -202.9375 96.375 C-202.4425 94.89 -202.4425 94.89 -201.9375 93.375 C-197.60571752 91.16664031 -193.79495385 89.96737242 -188.9375 89.375 C-188.4425 87.89 -188.4425 87.89 -187.9375 86.375 C-186.1875 85.53125 -186.1875 85.53125 -183.9375 84.875 C-183.12410156 84.62878906 -182.31070313 84.38257812 -181.47265625 84.12890625 C-180.63605469 83.88011719 -179.79945313 83.63132812 -178.9375 83.375 C-177.41503561 82.85895389 -175.89413918 82.33825426 -174.375 81.8125 C-162.88684957 78.00316565 -162.88684957 78.00316565 -156.9375 78.375 C-156.6075 77.715 -156.2775 77.055 -155.9375 76.375 C-155.2775 76.045 -154.6175 75.715 -153.9375 75.375 C-153.57726465 72.83496455 -153.57726465 72.83496455 -153.5 69.75 C-152.13242553 48.61054377 -145.68966353 33.89817654 -129.91796875 19.7734375 C-127.9375 18.375 -127.9375 18.375 -124.9375 18.375 C-124.9375 17.715 -124.9375 17.055 -124.9375 16.375 C-114.4654583 10.8438381 -105.82995996 7.95855556 -93.9375 7.375 C-93.9375 6.715 -93.9375 6.055 -93.9375 5.375 C-88.08461813 4.21272559 -82.41896331 3.23828084 -76.4375 3.375 C-72.01235281 3.46086961 -67.74340072 3.20712683 -63.35261536 2.72381592 C-55.00867935 1.80589246 -46.71028235 1.14271641 -38.3203125 0.83203125 C-37.24023422 0.79109344 -36.16015594 0.75015564 -35.04734802 0.70797729 C-23.3664894 0.28743147 -11.68825939 0.0489329 0 0 Z " fill="#141315" transform="translate(600.9375,19.625)"/>
<path d="M0 0 C0.66 0 1.32 0 2 0 C2 0.99 2 1.98 2 3 C3.3921875 3.4021875 3.3921875 3.4021875 4.8125 3.8125 C7.82445764 4.93460187 8.96347496 5.6579962 11 8 C11.99 8.495 11.99 8.495 13 9 C13.5878125 9.99 13.5878125 9.99 14.1875 11 C15.71443927 13.52734775 17.2149724 15.4106031 19.125 17.625 C26.93166647 27.6314263 31.84272655 39.90316582 34.9375 52.125 C35.21811279 53.23065308 35.21811279 53.23065308 35.50439453 54.35864258 C38.64229507 68.00455456 39.29764374 81.8711483 39.24050903 95.81227112 C39.24138385 97.43149109 39.24313988 99.05071077 39.24568737 100.66992897 C39.25011069 105.06676952 39.2422273 109.46351066 39.23213124 113.86033857 C39.22342574 118.62150185 39.22642188 123.38266034 39.22793579 128.14382935 C39.22898019 136.37544119 39.22275039 144.60702113 39.21146011 152.83862495 C39.19514735 164.73987073 39.18999122 176.64110121 39.18748413 188.54235696 C39.18311606 207.85531376 39.16983113 227.16825358 39.15087891 246.48120117 C39.13249707 265.23250241 39.11837481 283.983799 39.10986328 302.73510742 C39.10932729 303.90436014 39.10879129 305.07361286 39.10823905 306.27829748 C39.10407976 315.42377321 39.10016607 324.56924903 39.09632993 333.7147249 C39.07749146 378.47649885 39.03724802 423.23823027 39 468 C-23.04 468 -85.08 468 -149 468 C-151.31656282 452.94234166 -151.76716479 443.75276232 -146.95117188 429.81005859 C-145.77671514 426.34034684 -144.65988209 422.85304775 -143.546875 419.36328125 C-143.10402481 417.97696272 -142.66115348 416.59065095 -142.21826172 415.2043457 C-141.99620056 414.50910797 -141.7741394 413.81387024 -141.54534912 413.0975647 C-137.64549457 400.89467374 -133.44281288 388.97136882 -128.5625 377.125 C-127.79257329 375.25276675 -127.02303973 373.38037176 -126.25390625 371.5078125 C-125.87218262 370.58145996 -125.49045898 369.65510742 -125.09716797 368.70068359 C-124.40895627 367.00664759 -123.73398054 365.30710881 -123.07861328 363.60009766 C-120.36931303 356.56172785 -117.09930861 349.82632913 -113.72900391 343.08740234 C-112.75714194 341.13931593 -111.798288 339.1851841 -110.83984375 337.23046875 C-107.18978621 329.87341594 -103.29768521 323.18918845 -98.37988281 316.58154297 C-96.75725357 314.09571997 -96.75725357 314.09571997 -97.18408203 311.34643555 C-98.26663136 308.23321544 -99.8448309 305.71085224 -101.625 302.9375 C-102.35825435 301.78479652 -103.08999436 300.63112851 -103.8203125 299.4765625 C-104.18801758 298.89680664 -104.55572266 298.31705078 -104.93457031 297.71972656 C-106.5387355 295.13041868 -108.01046178 292.46895757 -109.5 289.8125 C-112.83799488 284.07296129 -116.62434579 278.98774951 -121 274 C-121.63035156 273.27425781 -122.26070312 272.54851562 -122.91015625 271.80078125 C-140.44594665 252.98106015 -165.71217362 241.84043293 -189.64794922 233.80419922 C-193.12918399 232.61391612 -196.56241598 231.31050422 -200 230 C-199.39659691 226.85485877 -198.40764072 224.9002243 -196.4453125 222.3828125 C-195.91856934 221.70057617 -195.39182617 221.01833984 -194.84912109 220.31542969 C-194.28016113 219.59258789 -193.71120117 218.86974609 -193.125 218.125 C-192.24642334 216.99433105 -192.24642334 216.99433105 -191.35009766 215.84082031 C-190.14716629 214.29489227 -188.94126608 212.75126983 -187.73242188 211.20996094 C-186.17341404 209.22121532 -184.6238118 207.22566506 -183.078125 205.2265625 C-172.00591434 190.95413089 -160.12361203 177.38446768 -148 164 C-146.71416016 162.57300781 -146.71416016 162.57300781 -145.40234375 161.1171875 C-136.44171542 151.21675819 -127.20537579 141.63104377 -117 133 C-115.64068359 131.78957031 -115.64068359 131.78957031 -114.25390625 130.5546875 C-103.06848227 120.68193016 -90.78120567 112.50098834 -77.6875 105.375 C-39.05374073 84.23613086 -16.72376163 41.8688605 -2 2 C-1.34 2 -0.68 2 0 2 C0 1.34 0 0.68 0 0 Z " fill="#FAFCFC" transform="translate(822,812)"/>
<path d="M0 0 C2.30285948 2.84947499 3.78165416 5.53660742 5.12890625 8.9375 C5.51892822 9.90510254 5.9089502 10.87270508 6.31079102 11.86962891 C6.72385498 12.90265137 7.13691895 13.93567383 7.5625 15 C18.06828665 40.67650679 30.87280888 63.6595169 50 84 C50.78890625 84.88558594 50.78890625 84.88558594 51.59375 85.7890625 C60.17334758 95.02526193 71.09198535 101.69458305 82.125 107.5625 C90.50431701 112.02495147 97.72780044 116.8909741 105 123 C106.07377278 123.88335488 107.1480008 124.76615665 108.22265625 125.6484375 C122.7455373 137.66961421 137.05243327 150.59925473 149.26953125 164.98828125 C151.41533274 167.48283603 153.64585677 169.89218982 155.875 172.3125 C160.79624205 177.71476571 165.4139906 183.31305671 170 189 C170.97407866 190.18326549 171.94941 191.36550053 172.92578125 192.546875 C181.09091222 202.45815206 188.8433552 212.6475556 196.48876953 222.96386719 C197.53433829 224.37259796 198.60491439 225.76298335 199.69482422 227.13769531 C201 229 201 229 201 231 C200.4016333 231.18062988 199.8032666 231.36125977 199.18676758 231.54736328 C187.72403357 235.03252758 176.70891603 238.58522894 166 244 C164.74226372 244.59148142 163.48306466 245.17985929 162.22265625 245.765625 C147.07600762 252.90803733 133.8467817 262.17097959 122 274 C121.27425781 274.71414063 120.54851562 275.42828125 119.80078125 276.1640625 C114.65269012 281.56500682 111.02613401 287.64437687 107.3203125 294.06640625 C105.77061722 296.73886705 104.14689044 299.33430363 102.4296875 301.90234375 C102.01259521 302.52794189 101.59550293 303.15354004 101.16577148 303.7980957 C100.36692629 304.98628068 99.55955519 306.16879271 98.74243164 307.34448242 C96.50674882 310.69174775 95.3157131 312.9673578 96 317 C97.00688754 319.18348422 97.00688754 319.18348422 98.5 321.3125 C101.16855881 325.49567899 103.47440993 329.7933512 105.66015625 334.2421875 C106.36780142 335.67010233 107.07565408 337.09791434 107.78369141 338.52563477 C108.14803284 339.26218292 108.51237427 339.99873108 108.88775635 340.75759888 C110.7119139 344.4352939 112.5581506 348.10185454 114.40234375 351.76953125 C118.63107301 360.19135474 122.83960267 368.62315673 127.03533936 377.0614624 C127.86831616 378.73537421 128.70370731 380.40808418 129.53955078 382.08056641 C137.92209087 398.91296336 145.26896221 416.49731956 150.125 434.6875 C150.42519043 435.80801758 150.42519043 435.80801758 150.73144531 436.95117188 C153.43535352 447.85710221 150.8955974 456.62641561 149 468 C95.87 468 42.74 468 -12 468 C-14.70373263 427.30928849 -14.70373263 427.30928849 -15.76000977 411.39575195 C-15.82355184 410.43845204 -15.88709391 409.48115213 -15.9525615 408.49484313 C-16.35849512 402.37907446 -16.76438477 396.26330288 -17.17025614 390.14753008 C-17.37425446 387.07373354 -17.5782745 383.99993844 -17.78229904 380.92614365 C-20.84723162 334.74892466 -23.90544085 288.57129615 -26.91796875 242.390625 C-27.03290445 240.62912425 -27.14784127 238.86762357 -27.26277924 237.10612297 C-28.28974474 221.36563719 -29.31543006 205.62506891 -30.33680201 189.88421911 C-30.82419837 182.37327502 -31.31276123 174.86240717 -31.8018446 167.35157275 C-31.94002969 165.22818383 -32.07796873 163.10477905 -32.21585846 160.98137093 C-33.08264765 147.64126811 -33.96156432 134.30260364 -34.94091797 120.97021484 C-35.01333552 119.98088172 -35.08575308 118.9915486 -35.1603651 117.97223568 C-35.48527931 113.54949115 -35.81613146 109.12735426 -36.15956116 104.70600891 C-38.31793177 76.31344258 -37.73717751 42.90429714 -20.24609375 18.87109375 C-18.61176867 16.4170445 -17.90588165 13.78732815 -17 11 C-16.01 10.67 -15.02 10.34 -14 10 C-12.97971135 8.68212715 -11.98028616 7.34789347 -11 6 C-8.66420057 4.44280038 -6.50676957 3.21540343 -4 2 C-3.2575 1.62875 -2.515 1.2575 -1.75 0.875 C-1.1725 0.58625 -0.595 0.2975 0 0 Z " fill="#FAFCFC" transform="translate(419,812)"/>
<path d="M0 0 C2.91669831 1.95013784 5.7481738 3.98618351 8.57055664 6.0715332 C9.94727539 7.08666992 9.94727539 7.08666992 11.35180664 8.12231445 C21.28715922 15.77314923 30.17872343 24.48466585 36.25805664 35.5090332 C38.41856183 39.40920658 40.62967254 43.22588284 43.12524414 46.9230957 C43.54330322 47.54514893 43.9613623 48.16720215 44.39208984 48.80810547 C45.20358702 50.00212226 46.0272427 51.18798851 46.86425781 52.36425781 C48.54843681 54.85130369 49.57466322 56.54260522 49.55102539 59.5871582 C48.303297 62.74873292 46.65952757 65.39654743 44.82055664 68.2590332 C40.38818958 75.37748827 36.56696909 82.76033786 32.82055664 90.2590332 C32.27818359 91.33886475 31.73581055 92.41869629 31.17700195 93.53125 C26.36347013 103.23883468 22.18936686 113.15677473 18.44555664 123.3215332 C17.96378581 124.6184082 17.48201497 125.9152832 17.00024414 127.2121582 C16.28743991 129.13565992 15.57506894 131.05931316 14.86450195 132.98364258 C13.54758624 136.52740766 12.17493612 140.0369775 10.73461914 143.5324707 C8.10104059 150.08509479 5.89959169 156.78493651 3.67895508 163.4855957 C2.94418719 165.70066161 2.2029942 167.91350541 1.46118164 170.1262207 C0.98423418 171.55838422 0.50765882 172.99067173 0.03149414 174.4230957 C-0.18624664 175.07226959 -0.40398743 175.72144348 -0.62832642 176.39028931 C-5.09856432 189.93703766 -4.54334023 200.59087393 -3.42944336 215.0715332 C-38.07944336 215.0715332 -72.72944336 215.0715332 -108.42944336 215.0715332 C-107.42944336 202.0715332 -107.42944336 202.0715332 -106.42944336 197.0715332 C-104.99091309 170.05913155 -123.75968628 139.43079634 -135.45959473 116.01586914 C-136.46654383 113.99715481 -137.46867136 111.97610964 -138.46948242 109.9543457 C-148.45699657 85.51705297 -148.45699657 85.51705297 -162.42944336 64.0715332 C-163.10919396 59.30467453 -161.10562799 56.45620571 -158.49194336 52.6965332 C-157.65339344 51.45219596 -156.8175373 50.20603993 -155.98413086 48.95825195 C-155.34169434 47.99798096 -155.34169434 47.99798096 -154.6862793 47.01831055 C-153.471599 45.13683022 -152.34818003 43.22980556 -151.24975586 41.27856445 C-146.03517561 32.01885027 -139.98868838 24.52765073 -132.42944336 17.0715332 C-131.64053711 16.27231445 -130.85163086 15.4730957 -130.03881836 14.6496582 C-112.05734171 -2.59788062 -87.1335213 -13.25378591 -63.74194336 -20.9284668 C-63.09483398 -21.14849365 -62.44772461 -21.36852051 -61.78100586 -21.59521484 C-43.900043 -27.19238731 -14.59059654 -9.3576144 0 0 Z " fill="#CA0402" transform="translate(676.429443359375,1064.928466796875)"/>
<path d="M0 0 C0.33 0 0.66 0 1 0 C1 112.86 1 225.72 1 342 C-61.04 342 -123.08 342 -187 342 C-189.31656282 326.94234166 -189.76716479 317.75276232 -184.95117188 303.81005859 C-183.77671514 300.34034684 -182.65988209 296.85304775 -181.546875 293.36328125 C-181.10402481 291.97696272 -180.66115348 290.59065095 -180.21826172 289.2043457 C-179.99620056 288.50910797 -179.7741394 287.81387024 -179.54534912 287.0975647 C-175.64549457 274.89467374 -171.44281288 262.97136882 -166.5625 251.125 C-165.79257329 249.25276675 -165.02303973 247.38037176 -164.25390625 245.5078125 C-163.87218262 244.58145996 -163.49045898 243.65510742 -163.09716797 242.70068359 C-162.40895627 241.00664759 -161.73398054 239.30710881 -161.07861328 237.60009766 C-158.36931303 230.56172785 -155.09930861 223.82632913 -151.72900391 217.08740234 C-150.75714194 215.13931593 -149.798288 213.1851841 -148.83984375 211.23046875 C-144.77891993 203.03694557 -140.25773905 195.49987471 -135 188 C-134.34 187.01 -133.68 186.02 -133 185 C-132.51233154 185.49814209 -132.02466309 185.99628418 -131.5222168 186.50952148 C-118.36437722 199.92475839 -118.36437722 199.92475839 -104 212 C-103.07058594 212.74636719 -102.14117188 213.49273438 -101.18359375 214.26171875 C-82.61411708 228.98923473 -62.0994285 241.70335573 -41.19140625 252.828125 C-39.14030352 253.92497138 -37.13156187 255.07418031 -35.125 256.25 C-32.43567571 257.7560216 -29.86673318 258.89741031 -27 260 C-24.99554909 260.99104822 -22.99504969 261.99016004 -21 263 C-21.13631836 261.93422729 -21.13631836 261.93422729 -21.27539062 260.84692383 C-28.06390876 204.88081373 -32.62827853 131.68055768 -13.78735352 77.47265625 C-5.24089811 52.73279705 -0.99167493 26.09130947 0 0 Z " fill="#F2F2F2" transform="translate(860,938)"/>
<path d="M0 0 C0.33 0 0.66 0 1 0 C1.33 8.25 1.66 16.5 2 25 C2.66 25 3.32 25 4 25 C4.15557373 25.61818604 4.31114746 26.23637207 4.47143555 26.87329102 C8.06611615 41.31988142 8.06611615 41.31988142 12.5625 55.5 C23.32148266 87.0504572 23.43146002 120.64571843 23.55297852 153.59881592 C23.58136863 161.13111383 23.62697368 168.66323754 23.69140625 176.1953125 C23.70105628 177.39070019 23.70105628 177.39070019 23.71090126 178.61023712 C23.8159062 190.17266927 24.48168179 201.53222045 25.80105591 213.02484131 C26.26958177 217.67646441 26.25470814 222.33080299 26.1875 227 C26.18685547 227.91265625 26.18621094 228.8253125 26.18554688 229.765625 C26.15766338 234.00391551 25.90011767 237.8494574 25 242 C24.9340265 244.10323534 24.91437755 246.20835724 24.9375 248.3125 C24.94652344 249.38113281 24.95554687 250.44976563 24.96484375 251.55078125 C24.97644531 252.35902344 24.98804688 253.16726563 25 254 C26.98637102 252.90197824 28.97058005 251.80023405 30.953125 250.6953125 C32.60594733 249.7756652 34.25937732 248.85709129 35.91601562 247.94433594 C38.02974859 246.77968704 40.13997577 245.60885249 42.25 244.4375 C42.93513672 244.06181885 43.62027344 243.6861377 44.32617188 243.29907227 C48.19231189 241.14487791 51.56655774 238.8140068 55 236 C56.35418539 235.21303943 57.72945388 234.46103871 59.125 233.75 C64.79913225 230.66602993 69.84146451 226.86890162 75 223 C76.25455619 222.07853854 77.50980257 221.15801626 78.765625 220.23828125 C87.86422034 213.54118215 96.55732595 206.50543005 105 199 C105.82056885 198.27417725 105.82056885 198.27417725 106.65771484 197.53369141 C112.35837552 192.47305713 117.8503072 187.36654098 122.6953125 181.4609375 C124 180 124 180 126 179 C129.35930447 185.0060292 132.56862723 191.0669305 135.62890625 197.23046875 C136.33660454 198.65095204 137.04445594 200.07135905 137.75244141 201.49169922 C138.12000549 202.22958679 138.48756958 202.96747437 138.86627197 203.72772217 C140.38721633 206.7760795 141.91572318 209.82061118 143.4447937 212.86489868 C145.04044458 216.04200124 146.63361717 219.22034424 148.22680664 222.39868164 C149.03142329 224.00288507 149.83675747 225.60672881 150.64282227 227.21020508 C167.36809543 260.48762598 167.36809543 260.48762598 173.25 276 C173.66620605 277.09159424 174.08241211 278.18318848 174.51123047 279.30786133 C177.02029931 286.02377278 179.27562863 292.75995942 181.125 299.6875 C181.42519043 300.80801758 181.42519043 300.80801758 181.73144531 301.95117188 C184.43535352 312.85710221 181.8955974 321.62641561 180 333 C126.87 333 73.74 333 19 333 C14.01522118 257.98738668 14.01522118 257.98738668 11.85449219 225.32885742 C11.78641908 224.3000191 11.71834598 223.27118078 11.64821005 222.21116555 C11.02799946 212.83736124 10.4078589 203.4635523 9.78801727 194.08972359 C8.31031459 171.74325 6.82894338 149.39704397 5.32963562 127.05200863 C4.55732633 115.54080186 3.79015932 104.02926157 3.02784729 92.51738834 C2.60124496 86.07999714 2.17170212 79.64283502 1.73461914 73.20614624 C-2.68519496 8.05558489 -2.68519496 8.05558489 0 0 Z " fill="#F2F2F2" transform="translate(388,947)"/>
<path d="M0 0 C4.78436276 4.21335382 7.47118141 8.96346706 10.4375 14.5625 C10.9519165 15.51777588 11.46633301 16.47305176 11.99633789 17.45727539 C16.13367507 25.20664252 20.04343966 33.06389071 23.9375 40.9375 C30.18670792 53.55799419 36.82174642 65.88361075 44 78 C44.75361816 79.27375488 44.75361816 79.27375488 45.52246094 80.57324219 C52.46069819 92.18813122 60.17960809 102.75036458 69 113 C69.84175781 114.00675781 70.68351562 115.01351562 71.55078125 116.05078125 C95.989356 144.32913206 131.35017675 156.42064192 167.61572266 159.28564453 C180.02367099 160.15701982 192.44092686 160.24298618 204.875 160.25 C205.95582855 160.25067474 207.0366571 160.25134949 208.15023804 160.25204468 C231.68474909 160.22875503 254.35256081 158.88971826 277 152 C278.10045654 151.66959717 278.10045654 151.66959717 279.22314453 151.33251953 C301.60611605 144.4512175 320.26757708 132.16096038 337 116 C337.90234375 115.16082031 338.8046875 114.32164062 339.734375 113.45703125 C363.1599049 91.08091092 379.49887839 61.22685579 393.00683594 32.12988281 C394.4330985 29.07120173 395.89203005 26.03168733 397.375 23 C397.81585937 22.0925 398.25671875 21.185 398.7109375 20.25 C399.94886571 18.08925258 401.21743195 16.70714464 403 15 C403.84006193 46.92011896 404.09228844 78.82051155 404.0625 110.75 C404.06164398 111.67407024 404.06078796 112.59814049 404.05990601 113.55021286 C404.04848118 125.03349501 404.02835514 136.51674738 404 148 C403.34 147.67 402.68 147.34 402 147 C402.00444122 146.14000397 402.00888245 145.28000793 402.01345825 144.39395142 C402.05348445 136.30070721 402.08395862 128.20749611 402.10362434 120.1141758 C402.11407446 115.95302747 402.12825592 111.79196074 402.15087891 107.63085938 C402.17256371 103.61733571 402.18455937 99.60389067 402.18975449 95.59031296 C402.19345811 94.05685564 402.20069011 92.52340276 402.21146011 90.98997879 C402.22591729 88.84690199 402.2279804 86.70415264 402.22705078 84.56103516 C402.231492 83.33969879 402.23593323 82.11836243 402.24050903 80.86001587 C402.29874311 77.8684993 402.29874311 77.8684993 400 76 C399.64921387 76.59200195 399.29842773 77.18400391 398.93701172 77.79394531 C388.12301021 95.97491967 376.94115432 114.01414304 363 130 C362.33355469 130.77601563 361.66710937 131.55203125 360.98046875 132.3515625 C358.70044073 134.9488486 356.36687092 137.48145181 354 140 C353.47164551 140.56235352 352.94329102 141.12470703 352.39892578 141.70410156 C333.49380638 161.65508127 312.21840597 175.57307644 286 184 C284.80632812 184.38800781 283.61265625 184.77601563 282.3828125 185.17578125 C262.56836778 190.99430867 241.23028052 193.14856091 220.64453125 193.16796875 C219.38525314 193.17129715 218.12597504 193.17462555 216.82853699 193.17805481 C214.17024178 193.18309484 211.51204892 193.1858997 208.85375977 193.18530273 C204.8692252 193.18518257 200.88487985 193.20560153 196.90039062 193.22460938 C146.76393865 193.33636133 99.4089144 186.22826541 62.51757812 149.52539062 C62.01677734 149.02201172 61.51597656 148.51863281 61 148 C60.24493164 147.24879883 60.24493164 147.24879883 59.47460938 146.48242188 C38.99914977 125.90182512 25.13058981 99.49526871 11.8347168 73.94995117 C10.94973511 72.26156128 10.94973511 72.26156128 10.046875 70.5390625 C9.27102051 69.04173584 9.27102051 69.04173584 8.47949219 67.51416016 C6.39561247 63.97294014 4.4148864 62.27659093 1 60 C1.66 60 2.32 60 3 60 C2.67 59.34 2.34 58.68 2 58 C1.47968344 53.36931091 1.23320891 48.71243039 0.9375 44.0625 C0.89264465 43.37703094 0.84778931 42.69156189 0.80157471 41.98532104 C-0.10034281 27.98359164 -0.22415182 14.03017957 0 0 Z " fill="#DBA881" transform="translate(419,662)"/>
<path d="M0 0 C2 3 2 3 2 5 C2.37721191 5.86471924 2.75442383 6.72943848 3.14306641 7.62036133 C4.25085977 11.98935947 3.18844391 14.9755006 1.7109375 19.07421875 C1.32139389 20.22093803 1.32139389 20.22093803 0.92398071 21.39082336 C0.09109112 23.82920151 -0.766518 26.25802972 -1.625 28.6875 C-2.18001681 30.300872 -2.73341816 31.91480069 -3.28515625 33.52929688 C-5.84934682 41.00045317 -8.48988367 48.44336711 -11.22705078 55.85302734 C-15.45410464 67.59425021 -13.96012501 78.51837493 -13 91 C-47.65 91 -82.3 91 -118 91 C-117 78 -117 78 -116 73 C-115.71668169 67.67991173 -116.45495725 62.93106719 -117.8125 57.8125 C-118.12658813 56.61971436 -118.12658813 56.61971436 -118.44702148 55.40283203 C-122.61969436 40.46890749 -128.77485243 25.73173704 -135.31616211 11.69384766 C-136 10 -136 10 -136 8 C-135.34 8 -134.68 8 -134 8 C-133.690625 7.38125 -133.38125 6.7625 -133.0625 6.125 C-132.375 4.75 -131.6875 3.375 -131 2 C-125.16093141 0.43525076 -118.94906179 0.87507815 -112.9519043 0.90234375 C-111.74319168 0.90380402 -110.53447906 0.90526428 -109.28913879 0.9067688 C-106.67002399 0.91056898 -104.05098658 0.91617087 -101.43189049 0.92483521 C-97.29352947 0.93838841 -93.15517915 0.94425761 -89.01679993 0.94897461 C-80.24035217 0.96005502 -71.46393033 0.97961604 -62.6875 1 C-53.19505434 1.02201547 -43.70261894 1.04257385 -34.21015292 1.05341816 C-30.09251792 1.05841193 -25.97493169 1.06828719 -21.85731637 1.08184814 C-18.70525772 1.09102247 -15.55319204 1.09382038 -12.40112305 1.09765625 C-11.25465302 1.10282257 -10.10818298 1.10798889 -8.92697144 1.11331177 C-7.89091263 1.11338226 -6.85485382 1.11345276 -5.78739929 1.11352539 C-4.42884339 1.11685631 -4.42884339 1.11685631 -3.04284191 1.12025452 C-1.00587306 1.22731706 -1.00587306 1.22731706 0 0 Z " fill="#B40602" transform="translate(686,1189)"/>
<path d="M0 0 C0.33 0 0.66 0 1 0 C1.33 8.25 1.66 16.5 2 25 C2.66 25 3.32 25 4 25 C4.15557373 25.61818604 4.31114746 26.23637207 4.47143555 26.87329102 C8.06611615 41.31988142 8.06611615 41.31988142 12.5625 55.5 C23.32148266 87.0504572 23.43146002 120.64571843 23.55297852 153.59881592 C23.58136863 161.13111383 23.62697368 168.66323754 23.69140625 176.1953125 C23.70105628 177.39070019 23.70105628 177.39070019 23.71090126 178.61023712 C23.8159062 190.17266927 24.48168179 201.53222045 25.80105591 213.02484131 C26.26958177 217.67646441 26.25470814 222.33080299 26.1875 227 C26.18685547 227.91265625 26.18621094 228.8253125 26.18554688 229.765625 C26.15766338 234.00391551 25.90011767 237.8494574 25 242 C24.9340265 244.10323534 24.91437755 246.20835724 24.9375 248.3125 C24.94652344 249.38113281 24.95554687 250.44976563 24.96484375 251.55078125 C24.97644531 252.35902344 24.98804688 253.16726563 25 254 C26.98637102 252.90197824 28.97058005 251.80023405 30.953125 250.6953125 C32.60594733 249.7756652 34.25937732 248.85709129 35.91601562 247.94433594 C38.02974859 246.77968704 40.13997577 245.60885249 42.25 244.4375 C42.93513672 244.06181885 43.62027344 243.6861377 44.32617188 243.29907227 C48.19231189 241.14487791 51.56655774 238.8140068 55 236 C56.35418539 235.21303943 57.72945388 234.46103871 59.125 233.75 C64.79913225 230.66602993 69.84146451 226.86890162 75 223 C76.25455619 222.07853854 77.50980257 221.15801626 78.765625 220.23828125 C87.86422034 213.54118215 96.55732595 206.50543005 105 199 C105.82056885 198.27417725 105.82056885 198.27417725 106.65771484 197.53369141 C112.35837552 192.47305713 117.8503072 187.36654098 122.6953125 181.4609375 C124 180 124 180 126 179 C126.98484108 180.74681293 127.96266187 182.4975851 128.9375 184.25 C129.48277344 185.22453125 130.02804687 186.1990625 130.58984375 187.203125 C131.76610835 189.53610409 132.52101691 191.45350762 133 194 C132.04480469 193.9690625 131.08960938 193.938125 130.10546875 193.90625 C123.99888944 194.78979426 120.30182372 200.22123247 116.3125 204.5 C109.23767366 211.82928876 102.4415169 218.27556007 94 224 C92.89436258 224.7943317 91.79163431 225.59272382 90.69140625 226.39453125 C74.0847603 238.47591288 56.7885891 249.51507798 39.0625 259.875 C38.29389648 260.32738037 37.52529297 260.77976074 36.73339844 261.24584961 C32.24492474 263.84441413 27.72616255 266.10142306 22.94311523 268.10986328 C20.75006111 269.05267874 20.75006111 269.05267874 18 271 C17.67 271.99 17.34 272.98 17 274 C16.34 274 15.68 274 15 274 C13.65185831 253.42538367 12.30398595 232.85074972 10.95639515 212.2760973 C10.39079963 203.64081547 9.82517842 195.00553533 9.25933635 186.37026966 C9.07714701 183.58988571 8.89497338 180.80950073 8.71280098 178.02911568 C8.47040395 174.32960172 8.22793478 170.63009249 7.98542595 166.93058586 C7.37793569 157.66137308 6.77188982 148.39206895 6.16848755 139.12258911 C5.92705431 135.41586581 5.68549253 131.70915091 5.44384766 128.00244141 C5.38438532 127.09003889 5.32492299 126.17763638 5.26365876 125.23758531 C4.48797215 113.3447746 3.69575862 101.45320249 2.88659763 89.56262302 C2.46765621 83.40478001 2.05436019 77.24656169 1.64245504 71.08824438 C1.36771568 66.98682816 1.08994132 62.88567298 0.8041172 58.7850132 C-2.72011523 8.16034568 -2.72011523 8.16034568 0 0 Z " fill="#F1F1F1" transform="translate(388,947)"/>
<path d="M0 0 C4.51941832 3.6977059 8.66410377 7.64482042 12.75 11.8125 C18.17993099 17.31440107 23.90151679 22.24165636 30 27 C31.40572266 28.13115234 31.40572266 28.13115234 32.83984375 29.28515625 C51.41794883 43.98983402 71.90617484 56.70633716 92.80859375 67.828125 C94.85969648 68.92497138 96.86843813 70.07418031 98.875 71.25 C101.56432429 72.7560216 104.13326682 73.89741031 107 75 C109.00751815 75.98482022 111.00934459 76.98152514 113 78 C113 75.03 113 72.06 113 69 C113.99 69 114.98 69 116 69 C120.7761194 80.79104478 120.7761194 80.79104478 120 87 C119.34 87.99 118.68 88.98 118 90 C110.58787847 91.0949725 105.45781345 88.27434987 99 84.875 C97.95690674 84.33875 96.91381348 83.8025 95.83911133 83.25 C67.39549688 68.44507842 38.82804501 51.64700388 14.64306641 30.43701172 C12.22990913 28.32648516 9.79483507 26.24181976 7.36010742 24.15625 C6.15698196 23.12540566 4.9552263 22.09295949 3.75512695 21.05859375 C0.55446095 18.30428073 -2.68446642 15.61654982 -6 13 C-5.34215037 9.70319035 -4.10579427 7.15882078 -2.4375 4.25 C-1.98246094 3.45078125 -1.52742187 2.6515625 -1.05859375 1.828125 C-0.53458984 0.92320313 -0.53458984 0.92320313 0 0 Z " fill="#D0D0D2" transform="translate(726,1123)"/>
<path d="M0 0 C2.14909962 2.76854598 4.01778828 5.57834526 5.75 8.625 C6.19859375 9.40101562 6.6471875 10.17703125 7.109375 10.9765625 C7.40328125 11.64429688 7.6971875 12.31203125 8 13 C7.67 13.66 7.34 14.32 7 15 C6.08299316 15.12052734 5.16598633 15.24105469 4.22119141 15.36523438 C0.33521041 16.13100295 -0.8521336 17.30268525 -3.5390625 20.15625 C-4.36067871 21.00977051 -5.18229492 21.86329102 -6.02880859 22.74267578 C-6.88555176 23.65259277 -7.74229492 24.56250977 -8.625 25.5 C-15.7205311 32.81353947 -22.55631646 39.27409081 -31 45 C-32.10563742 45.7943317 -33.20836569 46.59272382 -34.30859375 47.39453125 C-50.9152397 59.47591288 -68.2114109 70.51507798 -85.9375 80.875 C-86.70610352 81.32738037 -87.47470703 81.77976074 -88.26660156 82.24584961 C-92.75507526 84.84441413 -97.27383745 87.10142306 -102.05688477 89.10986328 C-104.24993889 90.05267874 -104.24993889 90.05267874 -107 92 C-107.33 92.99 -107.66 93.98 -108 95 C-108.66 95 -109.32 95 -110 95 C-110.31206729 90.55313665 -110.61490494 86.1057668 -110.90942383 81.65771484 C-111.01076563 80.14647746 -111.11457186 78.63540314 -111.22094727 77.12451172 C-111.3739321 74.94537556 -111.51787192 72.76579538 -111.66015625 70.5859375 C-111.74918213 69.2767334 -111.83820801 67.9675293 -111.92993164 66.61865234 C-111.99523591 63.24603959 -111.67991107 60.29478215 -111 57 C-110.67 57 -110.34 57 -110 57 C-109.67 59.64 -109.34 62.28 -109 65 C-107.35 63.68 -105.7 62.36 -104 61 C-103.01 61.66 -102.02 62.32 -101 63 C-100.48828125 65.8203125 -100.48828125 65.8203125 -100.3125 69.125 C-100.24675781 70.22070312 -100.18101562 71.31640625 -100.11328125 72.4453125 C-100.07589844 73.28835938 -100.03851563 74.13140625 -100 75 C-98.01362898 73.90197824 -96.02941995 72.80023405 -94.046875 71.6953125 C-92.39405267 70.7756652 -90.74062268 69.85709129 -89.08398438 68.94433594 C-86.97025141 67.77968704 -84.86002423 66.60885249 -82.75 65.4375 C-82.06486328 65.06181885 -81.37972656 64.6861377 -80.67382812 64.29907227 C-76.80768811 62.14487791 -73.43344226 59.8140068 -70 57 C-68.64581461 56.21303943 -67.27054612 55.46103871 -65.875 54.75 C-60.20086775 51.66602993 -55.15853549 47.86890162 -50 44 C-48.74544381 43.07853854 -47.49019743 42.15801626 -46.234375 41.23828125 C-37.13577966 34.54118215 -28.44267405 27.50543005 -20 20 C-19.4529541 19.51611816 -18.9059082 19.03223633 -18.34228516 18.53369141 C-12.14137572 13.02897246 -6.28803136 7.40040042 -1 1 C-0.67 0.67 -0.34 0.34 0 0 Z " fill="#D0D1D3" transform="translate(513,1126)"/>
<path d="M0 0 C-1.36983503 3.16115776 -1.9890638 3.9927092 -5 6 C-5.99 6 -6.98 6 -8 6 C-8 6.66 -8 7.32 -8 8 C-14.75 12 -14.75 12 -17 12 C-17 12.66 -17 13.32 -17 14 C-19.3359375 15.7265625 -19.3359375 15.7265625 -22.375 17.625 C-23.37273437 18.25664063 -24.37046875 18.88828125 -25.3984375 19.5390625 C-28 21 -28 21 -30 21 C-30 21.66 -30 22.32 -30 23 C-31.36965626 24.18178305 -32.79950292 25.29396916 -34.25 26.375 C-49.56048453 38.38152948 -61.0063926 52.70637569 -70.06201172 69.85253906 C-73.44248204 76.19598609 -77.11867408 81.68508926 -82 87 C-86.7734375 85.2890625 -86.7734375 85.2890625 -88.8125 82.6875 C-90.14671835 79.6679532 -90.38304442 78.26522008 -90 75 C-88.76501916 72.74024782 -87.52350834 70.72659743 -86.0625 68.625 C-85.22395008 67.38066276 -84.38809394 66.13450673 -83.5546875 64.88671875 C-82.91225098 63.92644775 -82.91225098 63.92644775 -82.25683594 62.94677734 C-81.04215564 61.06529702 -79.91873667 59.15827236 -78.8203125 57.20703125 C-73.60573225 47.94731706 -67.55924502 40.45611753 -60 33 C-59.21109375 32.20078125 -58.4221875 31.4015625 -57.609375 30.578125 C-46.48728562 19.90999845 -32.65419424 12.34444115 -18.79101562 5.84472656 C-17.10597326 5.04998194 -15.43520889 4.22516382 -13.765625 3.3984375 C-12.33476563 2.70621094 -12.33476563 2.70621094 -10.875 2 C-10.06804687 1.608125 -9.26109375 1.21625 -8.4296875 0.8125 C-5.52114092 -0.16013294 -3.04645833 -0.14128502 0 0 Z " fill="#B40602" transform="translate(604,1049)"/>
<path d="M0 0 C25.62606829 3.40127815 53.13561693 24.24773525 69.40625 43.15234375 C71.02033983 45.06939304 71.02033983 45.06939304 73 47 C74.21698512 49.06624811 75.39892326 51.15321122 76.5625 53.25 C78.76857968 57.21472182 81.02299861 61.10102145 83.5625 64.86328125 C83.97943115 65.48364258 84.3963623 66.10400391 84.82592773 66.74316406 C85.63581419 67.93472851 86.45788382 69.11812369 87.29321289 70.29199219 C89.06241195 72.90460615 90.0233943 74.49556051 89.875 77.6953125 C88.69543752 80.80219581 86.93644582 83.31396225 85 86 C82.5 84.625 82.5 84.625 80 83 C80 82.34 80 81.68 80 81 C79.34 81 78.68 81 78 81 C77.68361572 80.39639648 77.36723145 79.79279297 77.04125977 79.17089844 C71.06203446 67.82453708 65.21644066 56.90404985 57 47 C56.54367187 46.40574219 56.08734375 45.81148437 55.6171875 45.19921875 C52.85562558 41.66039603 49.63543483 38.81398398 46.234375 35.91796875 C43.79771014 33.82635608 41.43208291 31.6672117 39.0625 29.5 C32.13059129 23.268713 25.51972798 17.87260363 17 14 C17 13.34 17 12.68 17 12 C15.68 11.67 14.36 11.34 13 11 C13 10.34 13 9.68 13 9 C11.02 8.34 9.04 7.68 7 7 C7 6.34 7 5.68 7 5 C6.05125 4.71125 5.1025 4.4225 4.125 4.125 C1 3 1 3 -1 1 C-0.67 0.67 -0.34 0.34 0 0 Z " fill="#B40702" transform="translate(636,1047)"/>
<path d="M0 0 C2 1 2 1 2.7902832 3.17041016 C3.04124756 4.11706543 3.29221191 5.0637207 3.55078125 6.0390625 C3.834375 7.08674805 4.11796875 8.13443359 4.41015625 9.21386719 C4.70792969 10.33954102 5.00570313 11.46521484 5.3125 12.625 C8.14260548 23.02446816 11.24990723 33.2266164 14.84472656 43.38769531 C25.3087641 73.05631939 26.31428796 102.49498404 26.60129547 133.70639801 C26.63324995 137.05100444 26.67132544 140.39553103 26.70925713 143.74007416 C26.92148659 162.53423412 27.09102832 181.32961829 27.125 200.125 C27.12767883 200.96010101 27.13035767 201.79520203 27.13311768 202.65560913 C27.15263955 210.49719161 27.11106967 218.22251234 26 226 C25.67 226 25.34 226 25 226 C24.94465088 224.97640381 24.88930176 223.95280762 24.83227539 222.89819336 C24.6247576 219.0755914 24.41318911 215.25322226 24.20043945 211.4309082 C24.10917647 209.78122876 24.01899033 208.13148936 23.92993164 206.48168945 C23.80122119 204.1009056 23.6685512 201.72036919 23.53515625 199.33984375 C23.49656998 198.61039047 23.4579837 197.88093719 23.41822815 197.12937927 C23.35827919 196.07908287 23.35827919 196.07908287 23.29711914 195.00756836 C23.26380997 194.4013414 23.23050079 193.79511444 23.19618225 193.17051697 C23.03098083 191.34276508 22.77173925 189.52386725 22.49128723 187.71022034 C21.9962985 183.97204615 21.86173504 180.39826333 21.84228516 176.62890625 C21.83720444 175.92665421 21.83212372 175.22440216 21.82688904 174.50086975 C21.81624341 172.98303442 21.8076008 171.46518396 21.80076981 169.94732666 C21.78880584 167.51021743 21.76929738 165.07327198 21.74765015 162.63623047 C21.68672041 155.70823023 21.63278783 148.78023884 21.59863281 141.85205078 C21.40354331 104.3686855 18.79664506 69.34659204 6.76953125 33.5390625 C4.74258677 27.38519554 3 21.50583377 3 15 C2.34 15 1.68 15 1 15 C-0.00109515 11.68929162 -0.10356134 8.69915231 -0.0625 5.25 C-0.05347656 4.26515625 -0.04445313 3.2803125 -0.03515625 2.265625 C-0.02355469 1.51796875 -0.01195312 0.7703125 0 0 Z " fill="#F8F8F8" transform="translate(389,957)"/>
<path d="M0 0 C0.33 0 0.66 0 1 0 C1.19774504 8.22839084 0.72468642 16.11339317 -0.5 24.25 C-0.67088135 25.39243164 -0.8417627 26.53486328 -1.01782227 27.71191406 C-2.52928807 37.17909948 -4.60996491 46.45690918 -6.9375 55.75 C-7.10040527 56.40456177 -7.26331055 57.05912354 -7.43115234 57.73352051 C-9.20897368 64.81582933 -11.21667868 71.74975523 -13.6171875 78.640625 C-15.9075999 85.39731964 -17.30388479 91.92956185 -18.1875 99 C-18.42774902 100.90978638 -18.42774902 100.90978638 -18.67285156 102.8581543 C-23.89520667 146.8755698 -22.24253457 191.75614001 -22 236 C-22.33 236 -22.66 236 -23 236 C-25.84712543 211.01163702 -26.21037484 186.03289136 -26.24023438 160.91088867 C-26.24462192 157.76721616 -26.25856436 154.62381763 -26.28125 151.48022461 C-26.48434094 122.70464903 -25.31160563 95.0570606 -15.8137207 67.60864258 C-8.24618425 45.7373063 -4.41246338 22.67712961 0 0 Z " fill="#F8F8F8" transform="translate(859,943)"/>
<path d="M0 0 C0.99 0 1.98 0 3 0 C3.12375 1.258125 3.2475 2.51625 3.375 3.8125 C3.87763651 6.06575962 3.87763651 6.06575962 5 8 C7.1606851 9.17265819 9.2450482 9.56923163 11.64453125 10.109375 C15.99266573 11.26347821 19.99864523 12.97383929 24.125 14.75 C24.94411865 15.10191406 25.7632373 15.45382812 26.60717773 15.81640625 C28.26779824 16.53156043 29.92771395 17.24835345 31.58691406 17.96679688 C33.84813583 18.93497681 36.1195373 19.87123357 38.3984375 20.796875 C46.7820623 24.24536754 53.88381075 28.33359392 61 34 C62.1025595 34.82033095 63.20817891 35.63656108 64.31640625 36.44921875 C76.67114 45.57754588 76.67114 45.57754588 81 52 C81 52.66 81 53.32 81 54 C82.485 54.495 82.485 54.495 84 55 C85.7265625 57.4140625 85.7265625 57.4140625 87.625 60.625 C87.96692383 61.19677979 88.30884766 61.76855957 88.66113281 62.35766602 C89.39600505 63.5882617 90.12698925 64.82118578 90.85449219 66.05615234 C92.41641094 68.70662062 93.99734258 71.34551684 95.57958984 73.98388672 C96.3402413 75.25354315 97.09851562 76.52462782 97.85400391 77.79736328 C100.12790153 81.61422573 102.50823887 85.32409113 105 89 C104.67 89.66 104.34 90.32 104 91 C97.33501915 83.68477712 92.42133344 75.52880095 87.5625 66.9375 C84.20467027 61.1491699 80.4099791 56.02687598 76 51 C75.36964844 50.27425781 74.73929688 49.54851562 74.08984375 48.80078125 C56.55405335 29.98106015 31.28782638 18.84043293 7.35205078 10.80419922 C3.87081601 9.61391612 0.43758402 8.31050422 -3 7 C-2.38722388 4.03824877 -1.74627478 2.61941217 0 0 Z " fill="#F5F6F6" transform="translate(625,1035)"/>
<path d="M0 0 C0.66 0 1.32 0 2 0 C2.04487549 0.80107178 2.08975098 1.60214355 2.13598633 2.42749023 C2.3488322 6.09835255 2.58051793 9.7677993 2.8125 13.4375 C2.88275391 14.69755859 2.95300781 15.95761719 3.02539062 17.25585938 C3.43900593 23.59244581 4.09632287 29.11448594 6.35620117 35.05297852 C7.37228799 38.12589941 7.32200157 41.03873011 7.25 44.25 C7.23453125 45.41015625 7.2190625 46.5703125 7.203125 47.765625 C7.02433862 50.61245424 6.64631848 53.22708522 6 56 C5.01 56 4.02 56 3 56 C2.56609527 50.27538106 2.13916272 44.55029678 1.71826172 38.82470703 C1.57459842 36.88316342 1.42913845 34.94175177 1.28173828 33.00048828 C0.44608409 21.97781151 -0.25434086 11.06147253 0 0 Z " fill="#EFF0F0" transform="translate(382,890)"/>
<path d="M0 0 C1.8125 0.1875 1.8125 0.1875 4 1 C5.06639644 2.62498505 6.04710343 4.30596166 7 6 C8.03800524 7.21148009 9.08024857 8.41933283 10.125 9.625 C18.45197257 20.21974382 23.92936804 33.7431954 26 47 C23 46 23 46 21.96484375 43.94140625 C20.53590257 39.58516047 19.21607401 35.19923717 17.94335938 30.79492188 C16.78620973 26.95578055 15.55929363 24.07667105 13 21 C12.3881702 19.74263791 11.8042938 18.47126537 11.25 17.1875 C9.33225665 13.18105168 6.77022271 10.67461858 3.55078125 7.67578125 C1.42034472 5.37362187 0.66486248 3.02881795 0 0 Z " fill="#F1F2F2" transform="translate(831,820)"/>
<path d="M0 0 C0.33 0 0.66 0 1 0 C3.59540269 15.73237329 4.38473056 30.94770157 4.1875 46.875 C4.17239516 49.03905297 4.15871722 51.20311639 4.14648438 53.3671875 C4.11400891 58.57839164 4.06256191 63.78907384 4 69 C3.67 69 3.34 69 3 69 C2.99191315 68.42814972 2.98382629 67.85629944 2.97549438 67.26712036 C2.88962052 61.33003001 2.79012527 55.39328019 2.68261719 49.45654297 C2.64426866 47.2391531 2.60942629 45.02169976 2.578125 42.80419922 C2.53260174 39.62183911 2.47458681 36.43991818 2.4140625 33.2578125 C2.40251129 32.26194122 2.39096008 31.26606995 2.37905884 30.24002075 C2.3492543 28.85881546 2.3492543 28.85881546 2.31884766 27.44970703 C2.30552399 26.6369632 2.29220032 25.82421936 2.2784729 24.98684692 C2.17100919 22.76959942 2.17100919 22.76959942 0 21 C-0.71190381 17.87893826 -0.93309461 14.683035 -1.25 11.5 C-1.353125 10.61957031 -1.45625 9.73914063 -1.5625 8.83203125 C-1.65015625 7.99027344 -1.7378125 7.14851562 -1.828125 6.28125 C-1.9096582 5.50845703 -1.99119141 4.73566406 -2.07519531 3.93945312 C-2 2 -2 2 0 0 Z " fill="#F0F0F0" transform="translate(857,869)"/>
<path d="M0 0 C-0.33 1.98 -0.66 3.96 -1 6 C-1.66 6 -2.32 6 -3 6 C-3.226875 6.804375 -3.45375 7.60875 -3.6875 8.4375 C-5.31782434 12.86266606 -7.26232299 17.14125644 -10 21 C-10.99 21.33 -11.98 21.66 -13 22 C-14 19 -14 19 -12.453125 15.3125 C-11.72909423 13.86976221 -10.99424422 12.43241524 -10.25 11 C-9.70859375 9.91332031 -9.70859375 9.91332031 -9.15625 8.8046875 C-4.6726822 0 -4.6726822 0 0 0 Z " fill="#F3F3F3" transform="translate(404,828)"/>
<path d="M0 0 C3.99842319 1.33280773 4.49761485 3.02683005 6.625 6.625 C6.96692383 7.19677979 7.30884766 7.76855957 7.66113281 8.35766602 C8.39600505 9.5882617 9.12698925 10.82118578 9.85449219 12.05615234 C11.41641094 14.70662062 12.99734258 17.34551684 14.57958984 19.98388672 C15.3402413 21.25354315 16.09851562 22.52462782 16.85400391 23.79736328 C19.12790153 27.61422573 21.50823887 31.32409113 24 35 C23.67 35.66 23.34 36.32 23 37 C13.42901605 26.49526152 5.1278775 13.27215353 0 0 Z " fill="#F6F6F6" transform="translate(706,1089)"/>
<path d="M0 0 C1.32 0.33 2.64 0.66 4 1 C3.57718122 3.77381114 3.13750194 6.54308506 2.6875 9.3125 C2.56955078 10.09818359 2.45160156 10.88386719 2.33007812 11.69335938 C2.20439453 12.45068359 2.07871094 13.20800781 1.94921875 13.98828125 C1.78425903 15.03302612 1.78425903 15.03302612 1.6159668 16.09887695 C0.8704603 18.39981199 -0.15564269 19.46717941 -2 21 C-2.33 21 -2.66 21 -3 21 C-3.37369729 13.52605426 -2.04061541 7.17859349 0 0 Z " fill="#F3F3F3" transform="translate(388,853)"/>
<path d="M0 0 C1.70884005 1.62339805 3.37446717 3.29319053 5 5 C5 5.66 5 6.32 5 7 C4.34926514 7.20681396 3.69853027 7.41362793 3.02807617 7.62670898 C0.08114868 8.56342315 -2.86567677 9.50045789 -5.8125 10.4375 C-6.83666016 10.76298828 -7.86082031 11.08847656 -8.91601562 11.42382812 C-9.89892578 11.73642578 -10.88183594 12.04902344 -11.89453125 12.37109375 C-12.80050049 12.65911865 -13.70646973 12.94714355 -14.63989258 13.24389648 C-16.43040063 13.81751844 -18.2163338 14.4054446 -20 15 C-19.3125 13.0625 -19.3125 13.0625 -18 11 C-16.34175156 10.62703755 -14.67293936 10.30027117 -13 10 C-11.25580205 9.39593744 -9.5257808 8.74936749 -7.8125 8.0625 C-6.95269531 7.72347656 -6.09289062 7.38445312 -5.20703125 7.03515625 C-2.86049736 6.08711262 -2.86049736 6.08711262 -1 4 C-0.3574765 1.93125966 -0.3574765 1.93125966 0 0 Z " fill="#F3F1F0" transform="translate(615,1036)"/>
<path d="M0 0 C0.66 0.33 1.32 0.66 2 1 C-2.82440657 9.78914495 -7.88485244 18.03079174 -14 26 C-15 23 -15 23 -13.671875 20.3359375 C-13.03765625 19.35882812 -12.4034375 18.38171875 -11.75 17.375 C-11.12609375 16.39273437 -10.5021875 15.41046875 -9.859375 14.3984375 C-8 12 -8 12 -5 11 C-4.27954236 9.0187415 -3.61998741 7.01495907 -3 5 C-2.0436126 3.30792999 -1.05589069 1.63183107 0 0 Z " fill="#F6F6F6" transform="translate(526,1102)"/>
<path d="M0 0 C1.32 0.66 2.64 1.32 4 2 C4 2.66 4 3.32 4 4 C4.66 4 5.32 4 6 4 C6 4.66 6 5.32 6 6 C6.57492187 6.226875 7.14984375 6.45375 7.7421875 6.6875 C10.61427344 8.35708629 12.11217598 10.3672568 14.125 13 C16.91229157 16.63200604 16.91229157 16.63200604 20 20 C17 20 17 20 15.1328125 18.20703125 C14.47023438 17.41683594 13.80765625 16.62664062 13.125 15.8125 C10.19915687 12.39455894 7.22719864 9.13997705 4 6 C2.33333333 4.33333333 0.66666667 2.66666667 -1 1 C-0.67 0.67 -0.34 0.34 0 0 Z " fill="#DCA982" transform="translate(361,428)"/>
<path d="M0 0 C0.99 0 1.98 0 3 0 C3.3403125 1.918125 3.3403125 1.918125 3.6875 3.875 C4.16100084 6.06932132 4.16100084 6.06932132 5 8 C7.48313064 9.59688639 7.48313064 9.59688639 10 10 C8 11 8 11 5.3984375 10.22265625 C4.40070312 9.83980469 3.40296875 9.45695312 2.375 9.0625 C1.37210938 8.68222656 0.36921875 8.30195312 -0.6640625 7.91015625 C-1.43492187 7.60980469 -2.20578125 7.30945312 -3 7 C-2.38722388 4.03824877 -1.74627478 2.61941217 0 0 Z " fill="#F3F2F1" transform="translate(625,1035)"/>
<path d="M0 0 C1.8125 0.1875 1.8125 0.1875 4 1 C5.4375 3.1875 5.4375 3.1875 7 6 C7.8771658 7.07796279 8.77379336 8.14033059 9.6875 9.1875 C12 12 12 12 12 14 C8.66950878 12.57369692 6.68261063 10.84985604 4.3125 8.125 C3.71050781 7.44695313 3.10851562 6.76890625 2.48828125 6.0703125 C0.99233806 3.98934166 0.4210244 2.50369174 0 0 Z " fill="#E9E9E9" transform="translate(831,820)"/>
<path d="M0 0 C0.99 0 1.98 0 3 0 C2.67 1.98 2.34 3.96 2 6 C1.34 6 0.68 6 0 6 C-0.66 7.32 -1.32 8.64 -2 10 C-3.32 9.34 -4.64 8.68 -6 8 C-5.07456291 6.65826597 -4.13422595 5.32679841 -3.1875 4 C-2.66542969 3.2575 -2.14335937 2.515 -1.60546875 1.75 C-0.81076172 0.88375 -0.81076172 0.88375 0 0 Z " fill="#F4F4F4" transform="translate(401,828)"/>
<path d="M0 0 C3.71080883 4.42442592 6.84577733 9.17403931 10 14 C9.67 14.66 9.34 15.32 9 16 C4.73364311 11.30847353 1.20982591 6.46806625 -2 1 C-1.34 0.67 -0.68 0.34 0 0 Z " fill="#F7F7F7" transform="translate(720,1110)"/>
<path d="M0 0 C0.66 0 1.32 0 2 0 C2 0.99 2 1.98 2 3 C2.969375 3.268125 3.93875 3.53625 4.9375 3.8125 C5.948125 4.204375 6.95875 4.59625 8 5 C8.33 5.99 8.66 6.98 9 8 C5.37 7.67 1.74 7.34 -2 7 C-2 5.35 -2 3.7 -2 2 C-1.34 2 -0.68 2 0 2 C0 1.34 0 0.68 0 0 Z " fill="#EBEAEA" transform="translate(822,812)"/>
<path d="M0 0 C5.39449293 -0.27429625 8.51925805 -0.36055646 13 3 C10.05613377 4.47193312 7.62609964 3.84936173 4.375 3.5625 C3.18648438 3.46066406 1.99796875 3.35882813 0.7734375 3.25390625 C-0.14179688 3.17011719 -1.05703125 3.08632813 -2 3 C-1.34 2.67 -0.68 2.34 0 2 C0 1.34 0 0.68 0 0 Z " fill="#F1CFA7" transform="translate(345,423)"/>
<path d="M0 0 C3 1 3 1 4.38671875 3.50390625 C4.81597656 4.51324219 5.24523437 5.52257812 5.6875 6.5625 C6.12449219 7.57441406 6.56148437 8.58632813 7.01171875 9.62890625 C7.33785156 10.41136719 7.66398438 11.19382812 8 12 C4.5659298 10.61482883 3.29977978 9.34555636 1.75 6 C1.41484375 5.29875 1.0796875 4.5975 0.734375 3.875 C0 2 0 2 0 0 Z " fill="#F4F4F4" transform="translate(842,834)"/>
<path d="M0 0 C0.66 0.33 1.32 0.66 2 1 C-1.3 4.3 -4.6 7.6 -8 11 C-8.33 10.34 -8.66 9.68 -9 9 C-8.06725891 7.87105124 -7.12859878 6.74699124 -6.1875 5.625 C-5.66542969 4.99851562 -5.14335938 4.37203125 -4.60546875 3.7265625 C-3 2 -3 2 0 0 Z " fill="#F7F7F7" transform="translate(545,1079)"/>
<path d="M0 0 C0.33 0 0.66 0 1 0 C1 6.27 1 12.54 1 19 C0.67 19 0.34 19 0 19 C0 12.73 0 6.46 0 0 Z " fill="#F0BB92" transform="translate(420,754)"/>
<path d="M0 0 C2.31 0 4.62 0 7 0 C7 0.33 7 0.66 7 1 C4.69 1 2.38 1 0 1 C0 0.67 0 0.34 0 0 Z " fill="#141315" transform="translate(589,18)"/>
<path d="M0 0 C4 1 4 1 4 1 Z " fill="#141315" transform="translate(599,18)"/>
<path d="" fill="#F3C59C" transform="translate(0,0)"/>
<path d="" fill="#F0BB92" transform="translate(0,0)"/>
<path d="" fill="#F0BB92" transform="translate(0,0)"/>
<path d="M0 0 C2 1 2 1 2 1 Z " fill="#141315" transform="translate(471,36)"/>
<path d="M0 0 C2 1 2 1 2 1 Z " fill="#141315" transform="translate(490,28)"/>
<path d="" fill="#000102" transform="translate(0,0)"/>
<path d="" fill="#F3F3F3" transform="translate(0,0)"/>
<path d="" fill="#F3F3F3" transform="translate(0,0)"/>
<path d="" fill="#D0D1D3" transform="translate(0,0)"/>
<path d="" fill="#F0BB92" transform="translate(0,0)"/>
<path d="" fill="#F0BB92" transform="translate(0,0)"/>
<path d="" fill="#F0BB92" transform="translate(0,0)"/>
<path d="" fill="#DCA982" transform="translate(0,0)"/>
<path d="" fill="#DCA982" transform="translate(0,0)"/>
<path d="" fill="#141315" transform="translate(0,0)"/>
<path d="" fill="#141315" transform="translate(0,0)"/>
<path d="" fill="#141315" transform="translate(0,0)"/>
<path d="" fill="#141315" transform="translate(0,0)"/>
<path d="" fill="#141315" transform="translate(0,0)"/>
<path d="" fill="#141315" transform="translate(0,0)"/>
<path d="" fill="#141315" transform="translate(0,0)"/>
<path d="" fill="#141315" transform="translate(0,0)"/>
<path d="" fill="#141315" transform="translate(0,0)"/>
<path d="" fill="#141315" transform="translate(0,0)"/>
</svg>
