<svg xmlns="http://www.w3.org/2000/svg" width="22.012" height="27.21" viewBox="0 0 22.012 27.21">
  <g id="Group_17" data-name="Group 17" transform="translate(-43.971 -52.912)">
    <g id="Group_16" data-name="Group 16" transform="translate(44.445 52.912)">
      <path id="Path_20" data-name="Path 20" d="M1775.106,3.1a1.038,1.038,0,0,0,.649.2h2.26l-.628-.628-.443-.443L1776.707,2l-.783-.783L1774.711,0l0,.689c0,.124,0,.25,0,.372,0,.1,0,.213,0,.32v.305c0,.2,0,.408,0,.613a1.014,1.014,0,0,0,.4.8" transform="translate(-1757.003)" fill="#fff"/>
      <path id="Path_21" data-name="Path 21" d="M0,1.108V19.187H.749l4.1,0H13.7l6.492,0h.819V3.731H18.788a2.344,2.344,0,0,1-.419-.024,1.357,1.357,0,0,1-1.087-1.3c-.008-.5-.005-1.014,0-1.509,0-.21,0-.427,0-.641V0H1.145A1.038,1.038,0,0,0,.128.439,1.1,1.1,0,0,0,0,1.059c0,.016,0,.033,0,.05" transform="translate(0)" fill="#fff"/>
      <path id="Union_1" data-name="Union 1" d="M.9,7.078a.91.91,0,0,1-.9-.9c0-.025,0-.049,0-.072s0-.021,0-.031V0H6.956L12.98,0h7.2c.176,0,.358,0,.536,0h.3V5.284c0,.1,0,.193,0,.288,0,.185,0,.377,0,.563,0,.011,0,.022,0,.033v.016a.91.91,0,0,1-.273.634.926.926,0,0,1-.635.261H.9Z" transform="translate(0.026 19.631)" fill="#f90606" stroke="rgba(0,0,0,0)" stroke-width="1"/>
      <path id="Path_23" data-name="Path 23" d="M512.246,479.82c1.035,0,2.6-1.382,3.738-3.71a22.134,22.134,0,0,1,3.82-1.03,6.385,6.385,0,0,0,2.458,1.4c1.38,0,1.669-.8,1.669-1.467,0-1.316-1.5-1.316-2.226-1.316a13.16,13.16,0,0,0-1.614.2,16.123,16.123,0,0,1-1.331-1.148c-.424-.424-.8-.835-1.13-1.226a12.458,12.458,0,0,0,.736-2.832c0-1.847-.667-2.226-1.669-2.226-.761,0-1.669.4-1.669,2.279a5.336,5.336,0,0,0,1.356,3.01c-.221.673-.48,1.45-.771,2.325-.14.42-.292.809-.453,1.169q-.2.087-.381.179c-.442.221-.862.42-1.252.6-1.777.841-2.951,1.4-2.951,2.5,0,.8.867,1.292,1.669,1.292m9.46-5.008c.822,0,1.055.08,1.113.2,0,.25,0,.354-.516.357a4.1,4.1,0,0,1-.935-.534c.157-.017.273-.026.338-.026m-3.732-1.276c.1.1.363.339.707.633-.686.149-1.416.335-2.113.556q.052-.145.1-.293c.206-.619.392-1.176.558-1.677q.347.381.747.781m-1.832-4.792c0-1.166.362-1.166.556-1.166.393,0,.556,0,.556,1.113a8.918,8.918,0,0,1-.443,1.738,3.421,3.421,0,0,1-.67-1.685M514,477.037l.22-.1c-.836,1.212-1.662,1.774-1.978,1.774a.879.879,0,0,1-.556-.179c0-.395,1.176-.952,2.314-1.491" transform="translate(-506.723 -463.051)" fill="#ff0606"/>
      <rect id="Rectangle_3" data-name="Rectangle 3" width="21.012" height="26.71" fill="none"/>
      <text id="PDF" transform="translate(5.097 24.29)" fill="#fff" font-size="5" font-family="SegoeUI-Semibold, Segoe UI" font-weight="600"><tspan x="0" y="0">PDF</tspan></text>
    </g>
  </g>
</svg>
