<svg width="160" height="52" viewBox="0 0 160 52" fill="none" xmlns="http://www.w3.org/2000/svg">
<g clip-path="url(#clip0_137_3)">
<path d="M111.504 10.0048H115.172C117.174 17.5644 119.175 25.124 121.176 32.4612V10.0048H123.955V38.9091C122.843 38.9091 121.732 38.9091 120.62 38.9091C120.62 38.9091 120.397 38.6868 120.286 38.4644C119.508 35.574 118.73 32.6836 117.952 29.7931C116.729 25.2352 115.617 20.6772 114.394 16.1192C114.394 16.008 114.394 15.7857 114.283 15.6745C114.283 23.4564 114.394 31.1272 114.505 38.9091H111.615V10.0048H111.504Z" fill="#213E7A"/>
<path d="M158.974 1.22234V1.77819C158.974 17.0085 158.974 32.35 158.974 47.5804C158.974 48.1362 158.862 48.1362 158.307 48.1362C149.524 48.1362 140.742 48.1362 131.848 48.1362H131.07V50.582H130.18V49.915C130.18 48.4697 130.18 47.1357 130.18 45.6905C130.18 45.1717 130.477 44.9493 131.07 45.0235C131.07 45.6905 131.07 46.2463 131.07 46.9134C131.07 47.358 131.07 47.4692 131.626 47.4692C140.297 47.4692 148.968 47.4692 157.751 47.4692C158.195 47.4692 158.307 47.358 158.307 46.9134C158.307 32.0165 158.307 17.1197 158.307 2.22287C158.307 1.77819 158.195 1.66702 157.751 1.66702C157.64 1.66702 157.528 1.66702 157.417 1.66702C105.39 1.66702 53.4729 1.66702 1.44521 1.66702C0.444682 1.66702 0.555852 1.55585 0.555852 2.55638C0.555852 17.2309 0.555852 31.9054 0.555852 46.4687C0.555852 47.4692 0.555852 47.358 1.44521 47.358C9.67182 47.358 18.0096 47.358 26.2362 47.358C34.4628 47.358 26.6809 47.358 26.9032 47.358V44.9123H27.7926V50.4708H27.0144V48.0251H26.3474C17.7873 48.0251 9.22714 48.0251 0.667023 48.0251C0.222341 48.0251 0 47.8027 0 47.358C0 32.1277 0 16.8974 0 1.66702C0 1.22234 3.97576e-07 1 0.667023 1C53.2506 1 105.834 1 158.529 1H159.196L158.974 1.22234Z" fill="#213E7A"/>
<path d="M35.5745 9.89362C37.909 9.89362 40.1324 9.89362 42.467 10.116C44.9128 10.3383 46.4692 11.7835 46.9138 14.2293C47.3585 16.3415 47.3585 18.5649 46.9138 20.6771C46.5803 22.1224 45.9133 23.3452 44.3569 24.0123C46.8027 25.124 46.9138 27.2362 47.025 29.3484C47.025 31.4607 47.025 33.5729 47.025 35.574C47.025 36.6857 47.1362 37.6862 47.2473 38.7979C46.358 38.7979 45.4686 38.7979 44.5793 38.7979C44.5793 38.7979 44.2457 38.4644 44.2457 38.3532C44.2457 37.1304 44.0234 35.7963 44.0234 34.5734C44.0234 32.7947 44.0234 31.1272 44.0234 29.3484C44.0234 28.7926 44.0234 28.1256 43.8011 27.5697C43.5787 26.2357 42.9117 25.5686 41.6888 25.4575C40.7995 25.4575 39.7989 25.4575 38.7984 25.4575V38.9091H35.6856V9.89362H35.5745ZM38.5761 12.5617C38.5761 15.8968 38.5761 19.1208 38.5761 22.4559C38.5761 22.6782 38.6872 22.7894 38.9096 22.7894C39.5766 22.7894 40.2436 22.7894 40.7995 22.7894C42.5782 22.6782 43.4676 21.9 43.6899 20.1213C43.9122 18.5649 43.9122 17.0085 43.6899 15.341C43.5787 13.6734 42.5782 12.784 41.0218 12.5617C40.2436 12.5617 39.3543 12.5617 38.4649 12.5617H38.5761Z" fill="#213E7A"/>
<path d="M79.2644 17.4532C79.2644 16.675 79.2644 15.8968 79.2644 15.1186C79.2644 14.7851 79.2644 14.4516 79.1532 14.1181C78.8197 12.8952 78.1527 12.3394 77.041 12.3394C75.707 12.3394 74.9288 12.7841 74.5952 14.0069C74.1506 15.5633 74.1506 17.1197 74.5952 18.6761C74.8176 19.6766 75.4846 20.3436 76.2628 21.0107C77.4857 22.0112 78.7086 23.0117 79.9314 24.0123C81.8213 25.6798 82.7107 27.6809 82.8219 30.2378C82.8219 31.7942 82.8219 33.4617 82.4883 35.0181C81.7101 38.0197 79.8203 39.4649 76.7075 39.4649C76.1516 39.4649 75.5958 39.4649 75.0399 39.2426C72.8165 38.7979 71.3713 37.2415 71.0378 34.7958C70.8155 33.5729 70.8155 32.2389 70.7043 30.9048H73.8171C73.8171 31.5719 73.8171 32.1277 73.8171 32.7947C73.8171 33.6841 74.0394 34.4623 74.3729 35.2405C74.8176 36.3522 75.707 36.6857 76.8187 36.6857C77.9304 36.6857 78.8197 36.241 79.1532 35.1293C79.7091 33.6841 79.7091 32.2389 79.5979 30.7937C79.5979 28.7926 78.5974 27.125 77.041 25.9022C76.0405 25.124 75.1511 24.3458 74.1506 23.5676C72.1495 22.0112 71.149 19.899 71.149 17.342C71.149 15.7857 71.149 14.3404 71.7048 12.8952C72.483 10.783 74.0394 9.67129 76.2628 9.56012C76.9298 9.56012 77.5968 9.56012 78.375 9.67129C80.1538 10.0048 81.2655 11.1165 81.8213 12.8952C82.266 14.3404 82.266 15.8968 82.266 17.342H79.1532L79.2644 17.4532Z" fill="#213E7A"/>
<path d="M49.6932 30.7937H52.6948C52.6948 31.683 52.6948 32.5724 52.8059 33.5729C52.8059 34.0176 52.9171 34.3511 53.0283 34.7958C53.473 36.1298 54.4735 36.7969 55.6964 36.6857C57.0304 36.6857 57.9198 36.0187 58.2533 34.6846C58.698 32.7947 58.698 30.9048 58.2533 29.1261C57.9198 27.6809 56.9192 26.6804 55.8075 25.791C54.6958 24.9016 53.5841 24.0123 52.5836 23.0117C51.0272 21.5665 50.249 19.7878 50.249 17.6756C50.249 16.1192 50.249 14.5628 50.8049 13.0064C51.5831 10.783 53.2506 9.67129 55.474 9.56012C56.1411 9.56012 56.8081 9.56012 57.4751 9.67129C59.2538 10.0048 60.3655 11.0053 60.9214 12.6729C61.4772 14.1181 61.3661 15.6745 61.3661 17.342H58.3645C58.3645 17.1197 58.3645 16.8974 58.3645 16.675C58.3645 15.7857 58.3645 14.8963 58.1421 14.0069C57.9198 12.7841 57.1416 12.2282 56.0299 12.2282C54.6958 12.2282 54.0288 12.6729 53.5841 13.8958C53.1395 15.4521 53.1395 16.8974 53.5841 18.4537C53.9176 19.5655 54.6958 20.4548 55.5852 21.1218C56.4746 21.9 57.4751 22.5671 58.3645 23.3452C60.5879 25.124 61.6996 27.3474 61.8107 30.1266C61.8107 31.683 61.8107 33.2394 61.4772 34.7958C60.699 37.7974 58.8091 39.2426 55.6964 39.1314C55.1405 39.1314 54.5847 39.1314 54.0288 38.9091C51.6942 38.4644 50.249 36.7969 50.0267 34.2399C49.9155 33.0171 49.9155 31.9054 49.8043 30.6825L49.6932 30.7937Z" fill="#213E7A"/>
<path d="M139.408 17.8979H136.184C136.184 17.3421 136.184 16.7862 136.184 16.3415C136.184 15.5633 136.184 14.8963 135.85 14.1181C135.517 13.0064 134.738 12.4506 133.627 12.3394C132.293 12.3394 131.515 12.7841 131.181 14.007C130.959 14.674 130.847 15.4522 130.847 16.1192C130.847 21.4554 130.847 26.9027 130.847 32.2389C130.847 33.1283 131.07 34.0176 131.292 34.7958C131.626 35.9075 132.626 36.5745 133.738 36.4634C134.961 36.4634 135.739 35.7963 136.072 34.5735C136.295 33.6841 136.295 32.6836 136.406 31.7942C136.406 31.4607 136.406 31.016 136.406 30.5713H139.519C139.519 31.2384 139.519 32.0166 139.519 32.6836C139.408 33.7953 139.296 34.907 138.963 35.9075C138.407 37.6862 137.073 38.7979 135.183 39.0203C134.071 39.1315 133.071 39.1315 131.959 39.0203C129.847 38.6868 128.624 37.1304 128.179 35.0182C127.957 33.9065 127.846 32.6836 127.846 31.5719C127.846 26.5692 127.846 21.5665 127.846 16.5639C127.846 15.341 127.957 14.2293 128.402 13.1176C129.18 10.783 130.959 9.44897 133.404 9.44897C134.294 9.44897 135.072 9.44898 135.85 9.67132C137.851 10.116 138.852 11.5612 139.185 13.4511C139.408 14.7852 139.519 16.2304 139.63 17.6756L139.408 17.8979Z" fill="#213E7A"/>
<path d="M7.89307 38.9091V10.0048C8.11541 10.0048 8.33775 10.0048 8.56009 10.0048C10.2276 10.0048 11.784 10.0048 13.4516 10.0048C14.1186 10.0048 14.8968 10.0048 15.5638 10.2272C17.6761 10.783 18.8989 12.2282 19.3436 14.3405C19.7883 16.675 19.7883 19.1208 19.3436 21.4554C18.7878 24.457 16.7867 26.0134 13.6739 26.1245C13.0069 26.1245 12.2287 26.1245 11.5617 26.1245C11.117 26.1245 11.0058 26.2357 11.0058 26.6804C11.0058 30.4602 11.0058 34.3511 11.0058 38.1309C11.0058 39.0203 11.0058 38.9091 10.2276 38.9091C9.44945 38.9091 8.78243 38.9091 8.00424 38.9091H7.89307ZM11.0058 12.5617C11.0058 12.7841 11.0058 12.8953 11.0058 13.0064C11.0058 16.3415 11.0058 19.6766 11.0058 23.0118C11.0058 23.4564 11.117 23.5676 11.5617 23.5676C12.1175 23.5676 12.6734 23.5676 13.2292 23.5676C15.008 23.5676 16.1197 22.5671 16.342 20.7883C16.4532 19.1208 16.5644 17.3421 16.342 15.6745C16.342 13.8958 15.2303 12.7841 13.5628 12.6729C12.6734 12.6729 11.8952 12.6729 10.8947 12.6729L11.0058 12.5617Z" fill="#213E7A"/>
<path d="M145.522 12.7841V22.1224H151.97V24.9016H145.522V36.1299H152.859C152.748 37.1304 152.637 38.0198 152.415 38.9091C152.192 38.9091 152.081 38.9091 151.859 38.9091C148.857 38.9091 145.967 38.9091 142.965 38.9091C142.52 38.9091 142.409 38.9091 142.409 38.3533C142.409 29.1261 142.409 19.7878 142.409 10.5607C142.409 10.4495 142.409 10.2272 142.409 10.0048H152.303V12.7841H145.522Z" fill="#213E7A"/>
<path d="M32.2394 24.9016H25.7915V36.1299H33.1287C33.0176 37.1304 32.9064 38.0198 32.684 38.9091H32.1282C29.2378 38.9091 26.2362 38.9091 23.3457 38.9091C22.9011 38.9091 22.6787 38.9091 22.6787 38.3533C22.6787 29.1261 22.6787 19.899 22.6787 10.5607V10.0048H32.5729V12.7841C32.3505 12.7841 32.2394 12.7841 32.017 12.7841C30.1271 12.7841 28.1261 12.7841 26.2362 12.7841C25.9026 12.7841 25.6803 12.7841 25.6803 13.3399C25.6803 16.1192 25.6803 18.8984 25.6803 21.6777C25.6803 22.1224 25.6803 22.2336 26.2362 22.2336C28.0149 22.2336 29.9048 22.2336 31.6835 22.2336C32.1282 22.2336 32.2394 22.3447 32.2394 22.7894C32.2394 23.5676 32.2394 24.2346 32.2394 25.0128V24.9016Z" fill="#213E7A"/>
<path d="M98.6081 10.0048H108.502V12.7841H101.721V22.1224C101.943 22.1224 102.054 22.1224 102.277 22.1224C104.055 22.1224 105.834 22.1224 107.613 22.1224C108.058 22.1224 108.169 22.2336 108.169 22.6782C108.169 23.4564 108.169 24.1235 108.169 24.9016H101.721V36.1299H109.058C108.947 37.1304 108.836 38.0198 108.613 38.9091C108.391 38.9091 108.28 38.9091 108.058 38.9091C105.056 38.9091 102.166 38.9091 99.1639 38.9091C98.7193 38.9091 98.6081 38.9091 98.6081 38.3533C98.6081 29.1261 98.6081 19.7878 98.6081 10.5607C98.6081 10.4495 98.6081 10.2272 98.6081 10.0048Z" fill="#213E7A"/>
<path d="M88.7139 38.9091V38.1309C88.7139 29.9043 88.7139 21.6777 88.7139 13.4511C88.7139 13.0064 88.4916 12.7841 88.0469 12.7841C86.7128 12.7841 85.3788 12.7841 84.0447 12.7841V10.0048H96.3846V12.7841H91.8267C91.8267 13.1176 91.8267 13.3399 91.8267 13.5623C91.8267 21.7889 91.8267 30.0155 91.8267 38.2421C91.8267 38.7609 91.5673 39.0203 91.0485 39.0203C90.2703 39.0203 89.6033 39.0203 88.7139 39.0203V38.9091Z" fill="#213E7A"/>
<path d="M65.0346 16.8974H68.0362V38.9091C67.1468 38.9091 66.1463 38.9091 65.2569 38.9091C65.2569 38.9091 65.0346 38.798 65.0346 38.6868C65.0346 38.5756 65.0346 38.3533 65.0346 38.2421C65.0346 31.3495 65.0346 24.457 65.0346 17.5644C65.0346 10.6719 65.0346 17.1197 65.0346 16.8974Z" fill="#E4232E"/>
<path d="M37.7979 50.4708H37.1309V46.1352C37.1309 46.1352 37.1309 46.1352 37.0197 46.1352C37.0197 46.2463 36.9086 46.4687 36.7974 46.5799C36.3527 47.8027 35.7969 49.0256 35.3522 50.2485C35.3522 50.3596 35.1298 50.582 35.0187 50.582C34.9075 50.582 34.6851 50.3596 34.574 50.2485C34.0181 49.0256 33.5734 47.8027 33.0176 46.5799C33.0176 46.4687 32.9064 46.2463 32.6841 46.1352V50.4708H32.1282V45.2458C33.0176 45.0235 33.0176 45.1346 33.3511 45.9128C33.7958 46.9134 34.1293 47.9139 34.574 48.9144C34.574 49.0256 34.6852 49.2479 34.7963 49.4703C35.3522 48.1362 35.7969 46.9134 36.3527 45.5793C36.3527 45.4682 36.575 45.2458 36.7974 45.2458C37.4644 45.2458 37.4644 45.2458 37.4644 45.9128C37.4644 47.4692 37.4644 48.9144 37.4644 50.4708H37.7979Z" fill="#213E7A"/>
<path d="M49.9154 48.1363C50.2489 48.9145 50.5824 49.6927 50.9159 50.4709C50.4712 50.6932 50.1377 50.4709 50.0266 50.0262C49.8042 49.4703 49.5819 49.0256 49.3595 48.581C49.3595 48.4698 49.026 48.2474 48.8037 48.2474C48.359 48.2474 48.0255 48.2474 47.4696 48.2474V50.582H46.8026V45.2458C47.8031 45.2458 48.8037 45.2459 49.8042 45.4682C50.3601 45.4682 50.6936 46.024 50.8047 46.6911C50.8047 47.2469 50.5824 47.8028 50.0266 48.0251C50.0266 48.0251 49.8042 48.0251 49.693 48.1363H49.9154ZM47.692 47.6916C48.359 47.6916 49.026 47.6916 49.693 47.5804C50.1377 47.5804 50.3601 47.1357 50.3601 46.6911C50.3601 46.2464 50.1377 45.9129 49.8042 45.8017C49.1372 45.8017 48.4702 45.8017 47.692 45.6905V47.6916Z" fill="#223E7C"/>
<path d="M79.3756 48.1362C79.7091 48.9144 80.0427 49.6926 80.3762 50.4708C79.9315 50.582 79.598 50.4708 79.4868 50.0261C79.2645 49.5815 79.0421 49.1368 78.9309 48.6921C78.8198 48.3586 78.5974 48.1362 78.1528 48.2474C77.8192 48.2474 77.4857 48.2474 77.0411 48.2474V50.4708H76.374V45.1346C77.3746 45.1346 78.3751 45.1346 79.2645 45.2458C79.8203 45.2458 80.265 45.9128 80.3762 46.4687C80.3762 47.1357 80.1538 47.5804 79.598 47.9139C79.598 47.9139 79.4868 47.9139 79.2645 48.0251L79.3756 48.1362ZM77.1522 47.6916C77.8192 47.6916 78.4863 47.6916 79.1533 47.5804C79.598 47.5804 79.8203 47.1357 79.8203 46.5799C79.8203 46.1352 79.4868 45.8017 79.0421 45.8017C78.3751 45.8017 77.7081 45.8017 77.0411 45.8017V47.8027L77.1522 47.6916Z" fill="#213E7A"/>
<path d="M111.393 48.1362C111.726 48.9144 112.06 49.6926 112.393 50.4708C111.949 50.582 111.615 50.4708 111.504 50.0261C111.504 49.8038 111.282 49.5815 111.17 49.3591C110.615 48.0251 110.503 48.0251 108.947 48.2474V50.4708H108.391V45.1346C109.392 45.1346 110.392 45.1346 111.282 45.2458C111.949 45.2458 112.282 45.8017 112.393 46.4687C112.393 47.0245 112.171 47.5804 111.615 47.8027C111.615 47.8027 111.393 47.8027 111.282 48.0251L111.393 48.1362ZM109.058 47.6916C109.725 47.6916 110.392 47.6916 111.059 47.5804C111.504 47.5804 111.837 47.0245 111.726 46.5799C111.726 46.1352 111.393 45.8017 110.837 45.8017C110.281 45.8017 109.614 45.8017 108.947 45.8017V47.8027L109.058 47.6916Z" fill="#213E7A"/>
<path d="M121.732 45.2458C122.176 45.1346 122.399 45.2458 122.399 45.6905C122.399 46.2463 122.399 46.8022 122.399 47.3581H125.067C125.067 46.8022 125.067 46.2463 125.067 45.6905C125.067 45.1346 125.289 45.1346 125.734 45.2458C125.734 46.1352 125.734 47.0245 125.734 47.8027C125.734 48.5809 125.734 49.4703 125.734 50.3597H125.067V47.9139H122.399V50.3597H121.732V45.1346V45.2458Z" fill="#213E7A"/>
<path d="M88.9363 49.1368C89.1586 49.1368 89.2698 49.1368 89.4922 49.0256C89.9368 50.0262 90.715 50.2485 91.7156 50.0262C92.2714 50.0262 92.6049 49.5815 92.6049 49.1368C92.6049 48.581 92.2714 48.3586 91.8267 48.2474C91.2709 48.1363 90.8262 48.0251 90.2703 47.9139C89.4922 47.6916 89.1586 47.2469 89.1586 46.5799C89.1586 45.9129 89.6033 45.357 90.3815 45.2458C91.6044 45.0235 92.6049 45.357 93.0496 46.2464C93.0496 46.2464 93.0496 46.2464 93.0496 46.4687C92.8273 46.4687 92.7161 46.4687 92.4938 46.5799C92.1602 45.8017 91.4932 45.5794 90.715 45.6905C90.1592 45.6905 89.8257 46.1352 89.8257 46.4687C89.8257 47.0246 90.1592 47.1357 90.6039 47.2469C91.0485 47.3581 91.4932 47.4693 91.9379 47.5804C92.8273 47.8028 93.2719 48.3586 93.2719 49.0256C93.2719 49.8038 92.7161 50.2485 91.8267 50.4708C90.4927 50.8044 89.2698 50.2485 88.8251 49.1368H88.9363Z" fill="#213E7A"/>
<path d="M58.2532 50.4709C57.8086 50.582 57.475 50.4709 57.2527 50.0262C56.808 49.248 56.3633 48.4698 55.8075 47.5804C55.0293 48.4698 54.0288 49.1368 54.4734 50.4709C54.2511 50.4709 54.2511 50.4709 54.1399 50.4709C54.0288 50.4709 53.9176 50.4709 53.6953 50.4709C53.6953 50.1373 53.6953 49.8038 53.6953 49.4703C53.6953 48.2475 53.6953 47.0246 53.6953 45.8017C53.6953 45.2459 53.6953 45.2459 54.3623 45.357V48.3586C54.5846 48.1363 54.6958 48.0251 54.807 47.9139C55.474 47.1357 56.141 46.3576 56.808 45.5794C57.0304 45.2459 57.3639 45.1347 57.8086 45.2459C57.3639 45.6905 57.0304 46.1352 56.6969 46.5799C56.3633 46.9134 56.3633 47.1357 56.6969 47.5804C57.2527 48.3586 57.6974 49.248 58.1421 50.0262C58.1421 50.1373 58.2532 50.3597 58.3644 50.4709H58.2532Z" fill="#213E7A"/>
<path d="M61.4772 48.0251V50.0262C62.3666 50.0262 63.1448 50.0262 64.0341 50.0262C64.3676 50.0262 64.4788 50.0262 64.3676 50.4709H60.8102V45.2458H64.3676C64.3676 45.357 64.3676 45.5794 64.3676 45.6905H61.4772V47.4693H63.7006V47.9139H61.366L61.4772 48.0251Z" fill="#213E7A"/>
<path d="M99.6086 45.2458V45.6905H96.7182V47.4692H98.9416V47.9139H96.7182V49.915C97.4964 49.915 98.1634 49.915 98.9416 49.915C99.0528 49.915 99.2751 49.915 99.3863 49.915C99.4975 49.915 99.6086 50.1373 99.7198 50.2485C99.7198 50.2485 99.7198 50.2485 99.7198 50.3597H96.1624V45.1346H99.7198L99.6086 45.2458Z" fill="#213E7A"/>
<path d="M86.824 45.8017H84.0447V47.5805H86.2682C86.3793 47.914 86.2682 48.1363 85.9346 48.1363C85.2676 48.1363 84.7118 48.1363 84.0447 48.1363C84.0447 48.8033 84.0447 49.3592 84.0447 49.915C84.0447 49.915 84.2671 50.1374 84.4894 50.1374C85.2676 50.1374 85.9346 50.1374 86.7128 50.1374C87.0463 50.1374 87.1575 50.2486 87.0463 50.5821H83.4889V45.3571C84.6006 45.3571 85.7123 45.3571 86.824 45.3571C86.824 45.3571 87.0463 45.5794 87.0463 45.6906C87.0463 45.6906 87.0463 45.6906 86.9352 45.8017H86.824Z" fill="#213E7A"/>
<path d="M101.61 50.4709C101.943 49.5815 102.166 48.6921 102.499 47.9139C102.721 47.1357 103.055 46.4687 103.277 45.6905C103.277 45.357 103.5 45.2458 103.833 45.2458C104.167 45.2458 104.278 45.357 104.389 45.6905C104.945 47.2469 105.501 48.9145 106.057 50.4709C105.501 50.6932 105.39 50.4709 105.167 50.0262C104.834 49.0256 104.834 49.0256 103.722 49.0256C102.61 49.0256 102.721 49.0256 102.277 50.0262C102.277 50.3597 102.277 50.8044 101.61 50.582V50.4709ZM103.833 46.024C103.833 46.024 103.833 46.024 103.722 46.024C103.5 46.8022 103.166 47.5804 102.833 48.4698H104.611C104.278 47.6916 104.055 46.9134 103.722 46.1352L103.833 46.024Z" fill="#213E7A"/>
<path d="M44.5793 50.4709C44.0234 50.6932 43.8011 50.4709 43.6899 50.0262C43.3564 48.9145 43.3564 49.0256 42.2447 49.0256C41.133 49.0256 41.133 49.0256 40.7995 50.0262C40.7995 50.3597 40.6883 50.6932 40.1324 50.4709C40.3548 49.915 40.5771 49.3592 40.6883 48.8033C41.0218 47.8028 41.4665 46.6911 41.8 45.6905C41.8 45.357 42.0223 45.2458 42.3559 45.2458C42.6894 45.2458 42.8005 45.2459 42.9117 45.5794C43.4676 47.2469 44.0234 48.8033 44.5793 50.4709ZM41.3553 48.3586H43.134C42.8005 47.5804 42.5782 46.8022 42.2447 46.024C42.2447 46.024 42.2447 46.024 42.1335 46.024C41.9112 46.8022 41.5777 47.5804 41.2441 48.4698L41.3553 48.3586Z" fill="#213E7A"/>
<path d="M119.175 46.8022C119.063 46.8022 118.841 46.8022 118.73 46.9134C118.73 46.8022 118.619 46.5799 118.508 46.4687C118.285 45.9129 117.841 45.6905 117.174 45.6905C116.507 45.6905 116.062 46.024 115.84 46.5799C115.395 47.4693 115.395 48.3586 115.84 49.248C116.062 49.8038 116.507 50.2485 117.174 50.2485C117.841 50.2485 118.285 49.915 118.508 49.3592C118.508 49.248 118.508 49.1368 118.73 49.0256C118.952 49.0256 119.063 49.0256 119.175 49.0256C119.175 49.8038 118.619 50.4709 117.841 50.6932C116.729 51.0267 115.617 50.6932 115.173 49.4703C114.728 48.4698 114.728 47.4693 115.173 46.4687C115.617 45.5794 116.395 45.2458 117.285 45.2458C118.174 45.2458 118.841 45.8017 119.063 46.5799C119.063 46.5799 119.063 46.5799 119.063 46.6911C119.063 46.6911 119.063 46.6911 119.063 46.8022H119.175Z" fill="#213E7A"/>
<path d="M68.7033 50.4708H68.0362V45.6905H66.4799C66.4799 45.4682 66.4799 45.357 66.4799 45.1346H70.3708C70.3708 45.2458 70.3708 45.4682 70.3708 45.5793H68.7033V50.3597V50.4708Z" fill="#213E7A"/>
<path d="M65.0346 14.3404V9.89362H68.0362C68.0362 10.0048 68.0362 10.116 68.0362 10.2271C68.0362 11.45 68.0362 12.6729 68.0362 13.7846C68.0362 14.1181 67.925 14.2293 67.5915 14.2293C66.7022 14.2293 65.924 14.2293 65.0346 14.2293V14.3404Z" fill="#E4232E"/>
</g>
<defs>
<clipPath id="clip0_137_3">
<rect width="160" height="52" fill="white"/>
</clipPath>
</defs>
</svg>
