<svg width="20" height="20" viewBox="0 0 20 20" fill="none" xmlns="http://www.w3.org/2000/svg">
<g clip-path="url(#clip0_806_45)">
<path d="M14.6775 12.9299C15.8879 11.2782 16.43 9.23049 16.1954 7.19632C15.9608 5.16214 14.9668 3.29155 13.4122 1.95879C11.8577 0.626033 9.85721 -0.0706141 7.81107 0.00822737C5.76493 0.0870688 3.824 0.935584 2.37661 2.38402C0.929213 3.83245 0.0820868 5.77398 0.00470953 7.82017C-0.0726677 9.86637 0.62541 11.8663 1.95928 13.4199C3.29316 14.9735 5.16445 15.9662 7.1988 16.1994C9.23314 16.4325 11.2805 15.8889 12.9313 14.6774H12.93C12.9675 14.7274 13.0075 14.7749 13.0525 14.8211L17.865 19.6336C18.0994 19.8682 18.4174 20 18.749 20.0001C19.0805 20.0003 19.3986 19.8686 19.6331 19.6343C19.8677 19.3999 19.9995 19.0819 19.9997 18.7503C19.9998 18.4187 19.8682 18.1007 19.6338 17.8661L14.8213 13.0536C14.7766 13.0084 14.7285 12.9679 14.6775 12.9299ZM15 8.12488C15 9.02772 14.8222 9.92172 14.4767 10.7558C14.1312 11.5899 13.6248 12.3478 12.9864 12.9862C12.348 13.6246 11.5901 14.1311 10.756 14.4766C9.92186 14.8221 9.02786 14.9999 8.12502 14.9999C7.22219 14.9999 6.32819 14.8221 5.49408 14.4766C4.65996 14.1311 3.90207 13.6246 3.26366 12.9862C2.62526 12.3478 2.11885 11.5899 1.77335 10.7558C1.42785 9.92172 1.25002 9.02772 1.25002 8.12488C1.25002 6.30152 1.97435 4.55284 3.26366 3.26352C4.55298 1.97421 6.30166 1.24988 8.12502 1.24988C9.94839 1.24988 11.6971 1.97421 12.9864 3.26352C14.2757 4.55284 15 6.30152 15 8.12488Z" fill="#282C7D"/>
</g>
<defs>
<clipPath id="clip0_806_45">
<rect width="20" height="20" fill="white"/>
</clipPath>
</defs>
</svg>
