<svg xmlns="http://www.w3.org/2000/svg" width="101" height="24.393" viewBox="0 0 101 24.393">
  <g id="Group_18" data-name="Group 18" transform="translate(-128 -24.804)">
    <g id="Group_17" data-name="Group 17">
      <g id="Group_16" data-name="Group 16">
        <g id="Group_15" data-name="Group 15">
          <g id="Group_14" data-name="Group 14">
            <g id="Group_13" data-name="Group 13">
              <g id="Group_12" data-name="Group 12">
                <g id="Group_11" data-name="Group 11">
                  <g id="Group_10" data-name="Group 10">
                    <g id="Group_9" data-name="Group 9">
                      <g id="Group_8" data-name="Group 8">
                        <g id="Group_2" data-name="Group 2" transform="translate(71 2.414)">
                          <g id="Group_1" data-name="Group 1" transform="translate(57 22.39)">
                            <g id="_1566991719424">
                              <rect id="Rectangle_1" data-name="Rectangle 1" width="25" height="24.393" fill="#497ec1"/>
                              <path id="Path_1" data-name="Path 1" d="M19.822,3.258A7.446,7.446,0,0,1,17.9,3.91c.3,0,.757-.712.959-.949A4.1,4.1,0,0,0,19.519,1.6V1.479h-.1a8.037,8.037,0,0,1-2.272,1.008h-.151l-.2-.237a3.512,3.512,0,0,0-1.111-.771,3.42,3.42,0,0,0-1.717-.3,3.3,3.3,0,0,0-1.616.534,4,4,0,0,0-1.313,1.245A4.523,4.523,0,0,0,10.28,4.74a4.8,4.8,0,0,0,0,1.9c0,.119,0,.119-.1.119A11.785,11.785,0,0,1,2.3,2.131c-.1-.119-.151-.119-.2,0a5.216,5.216,0,0,0,.707,5.455,2.071,2.071,0,0,0,.5.474A3.525,3.525,0,0,1,1.8,7.587c-.1-.059-.151,0-.151.119v.534a4.59,4.59,0,0,0,2.474,3.676c.151.059.353.119.5.178a3.952,3.952,0,0,1-1.515,0c-.1,0-.151,0-.1.178A4.358,4.358,0,0,0,6.14,15.3a.849.849,0,0,1,.4.059h0a5.13,5.13,0,0,1-2.12,1.3,6.741,6.741,0,0,1-3.231.474H.94v.119c.2.178.454.3.656.474a10.576,10.576,0,0,0,13.43-2.016c2.322-2.609,3.13-6.226,3.13-9.9,0-.119.151-.237.252-.3a8.263,8.263,0,0,0,1.515-1.838.66.66,0,0,0,.1-.356h-.05Z" transform="translate(2.018 3.122)" fill="#fff"/>
                            </g>
                          </g>
                        </g>
                        <g id="Group_6" data-name="Group 6" transform="translate(90.79 1.437)">
                          <g id="Group_5" data-name="Group 5" transform="translate(75.21 23.366)">
                            <g id="_1566991717408" transform="translate(0)">
                              <rect id="Rectangle_2" data-name="Rectangle 2" width="25" height="24.393" transform="translate(0)" fill="#067cb6"/>
                              <path id="Path_2" data-name="Path 2" d="M11.6,11.409h2.664s.234-.093.234-.234V2.391s-.093-.234-.234-.234H11.6s-.234.093-.234.234v8.785S11.463,11.409,11.6,11.409Zm14.252-5.28v5.093s-.093.234-.234.234H22.959s-.234-.093-.234-.234V6.5c0-1.262-.467-2.1-1.589-2.1A1.722,1.722,0,0,0,19.5,5.521a1.822,1.822,0,0,0-.093.748v4.953s-.093.234-.234.234H16.51s-.234-.093-.234-.234V2.437A.221.221,0,0,1,16.51,2.2h2.664s.234.093.234.234V3.512h0a3.111,3.111,0,0,1,2.85-1.542c2.056,0,3.6,1.308,3.6,4.159h0Z" transform="translate(-5.949 7.236)" fill="#fff"/>
                              <path id="Path_3" data-name="Path 3" d="M14.694,2.7a1.683,1.683,0,0,1-3.364,0,1.683,1.683,0,0,1,3.364,0Z" transform="translate(-6.096 3.893)" fill="#fff"/>
                            </g>
                          </g>
                        </g>
                        <g id="Group_7" data-name="Group 7" transform="translate(106.57 3.414)">
                          <g id="Group_4" data-name="Group 4" transform="translate(97.43 21.39)">
                            <g id="Group_3" data-name="Group 3">
                              <g id="_1566991717888">
                                <rect id="Rectangle_3" data-name="Rectangle 3" width="25" height="24.393" fill="#ee2229"/>
                                <path id="Path_4" data-name="Path 4" d="M31.4,6.994,27.9,8.863s-.28,0-.28-.187V4.844s.14-.28.28-.187L31.4,6.62s.14.327,0,.374h0Zm5.561-2.2A3.341,3.341,0,0,0,33.6,1.48H24.814A3.341,3.341,0,0,0,21.45,4.8V8.816a3.341,3.341,0,0,0,3.364,3.318H33.6a3.341,3.341,0,0,0,3.364-3.318Z" transform="translate(-16.684 5.436)" fill="#fff"/>
                              </g>
                            </g>
                          </g>
                        </g>
                      </g>
                    </g>
                  </g>
                </g>
              </g>
            </g>
          </g>
        </g>
      </g>
    </g>
  </g>
</svg>
