<svg width="40" height="40" viewBox="0 0 40 40" fill="none" xmlns="http://www.w3.org/2000/svg">
<g clip-path="url(#clip0_1020_5)">
<path d="M39.3287 18.2093L33.2665 12.1471V5.14422C33.2665 3.878 32.2404 2.85184 30.9724 2.85184C29.7072 2.85184 28.6811 3.878 28.6811 5.14422V7.56175L24.1673 3.0478C21.9357 0.817354 18.0555 0.82131 15.829 3.05184L0.671219 18.2093C-0.223577 19.1058 -0.223577 20.5566 0.671219 21.4518C1.56642 22.3481 3.01996 22.3481 3.91483 21.4518L19.0711 6.29392C19.5649 5.80276 20.4351 5.80276 20.9263 6.29247L36.0852 21.4518C36.298 21.6648 36.5507 21.8338 36.829 21.9489C37.1072 22.0641 37.4054 22.1232 37.7066 22.1229C38.2937 22.1229 38.8807 21.8997 39.3288 21.4518C40.2239 20.5566 40.2239 19.1059 39.3287 18.2093Z" fill="#005C99"/>
<path d="M20.7963 10.6446C20.3559 10.2044 19.6429 10.2044 19.2038 10.6446L5.87097 23.9734C5.65971 24.185 5.54108 24.4719 5.54114 24.7709V34.4925C5.54114 36.7737 7.3908 38.6233 9.67196 38.6233H16.273V28.4004H23.7255V38.6233H30.3267C32.6078 38.6233 34.4574 36.7737 34.4574 34.4925V24.7709C34.4574 24.4711 34.3392 24.1838 34.1276 23.9734L20.7963 10.6446Z" fill="#005C99"/>
</g>
<defs>
<clipPath id="clip0_1020_5">
<rect width="40" height="40" fill="white"/>
</clipPath>
</defs>
</svg>
