<svg width="58" height="40" viewBox="0 0 58 40" fill="none" xmlns="http://www.w3.org/2000/svg">
<g clip-path="url(#clip0_1026_2)">
<path d="M3.16716 0H54.8328C56.5793 0.00935891 58 1.42723 58 3.15863V36.8414C58 38.5774 56.5651 40 54.814 40H3.16716C1.42546 39.9906 0 38.5728 0 36.8414V3.15863C0 1.42723 1.42074 0.00935891 3.16716 0Z" fill="#FF9933"/>
<path d="M0 13.332H58V26.6685H0V13.332Z" fill="white"/>
<path d="M0 26.668H58V36.8411C58 38.5772 56.5651 39.9997 54.814 39.9997H3.16716C1.42546 39.9904 0 38.5725 0 36.8411V26.668Z" fill="#128807"/>
<path d="M34.3809 20.0006C34.3809 17.0525 31.9736 14.666 29 14.666C26.0264 14.666 23.6191 17.0525 23.6191 20.0006C23.6191 22.944 26.0264 25.3352 29 25.3352C31.9736 25.3352 34.3809 22.9487 34.3809 20.0006Z" fill="#000088"/>
<path d="M33.7059 19.9994C33.7059 17.421 31.6007 15.334 29 15.334C26.3992 15.334 24.2941 17.421 24.2941 19.9994C24.2941 22.5778 26.3992 24.6648 29 24.6648C31.6007 24.6648 33.7059 22.5778 33.7059 19.9994Z" fill="white"/>
<path d="M29.9392 20.0003C29.9392 19.4856 29.5192 19.0645 29 19.0645C28.4808 19.0645 28.0607 19.4809 28.0607 20.0003C28.0607 20.5151 28.4808 20.9316 29 20.9316C29.5192 20.9316 29.9392 20.5151 29.9392 20.0003Z" fill="#000088"/>
<path d="M33.8994 20.6414C33.9183 20.515 33.8239 20.3981 33.6964 20.3793C33.569 20.3606 33.451 20.4542 33.4321 20.5806C33.4132 20.7069 33.5076 20.8239 33.6351 20.8426C33.7672 20.8566 33.8852 20.7677 33.8994 20.6414Z" fill="#000088"/>
<path d="M29 24.6652L29.1604 21.8668L29 20.5332L28.8395 21.8668L29 24.6652Z" fill="#000088"/>
<path d="M33.5643 21.8773C33.6162 21.7603 33.5548 21.6199 33.4368 21.5731C33.3188 21.5216 33.1772 21.5825 33.13 21.6995C33.0781 21.8165 33.1395 21.9568 33.2575 22.0036C33.3802 22.0504 33.5171 21.9943 33.5643 21.8773Z" fill="black"/>
<path d="M27.7822 24.5072L28.6696 21.8446L28.8631 20.5156L28.3581 21.765L27.7822 24.5072Z" fill="black"/>
<path d="M32.9223 22.9862C33.0026 22.8833 32.9837 22.7382 32.8799 22.6586C32.776 22.5791 32.6297 22.5978 32.5495 22.7008C32.4692 22.8037 32.4881 22.9488 32.5919 23.0283C32.6958 23.1079 32.8421 23.0845 32.9223 22.9862Z" fill="black"/>
<path d="M26.6447 24.0427L28.1976 21.6983L28.7309 20.4629L27.9191 21.5345L26.6447 24.0427Z" fill="black"/>
<path d="M32.0067 23.8877C32.1105 23.8081 32.1294 23.6631 32.0492 23.5601C31.9689 23.4572 31.8226 23.4385 31.7188 23.518C31.6149 23.5976 31.596 23.7426 31.6763 23.8456C31.7565 23.9439 31.9076 23.9673 32.0067 23.8877Z" fill="black"/>
<path d="M25.6724 23.2989L27.7822 21.4318L28.6177 20.3789L27.5557 21.2072L25.6724 23.2989Z" fill="black"/>
<path d="M30.8928 24.529C31.0108 24.4775 31.0721 24.3418 31.0202 24.2249C30.9683 24.1079 30.8314 24.047 30.7134 24.0985C30.5954 24.1453 30.5341 24.2857 30.586 24.4027C30.6332 24.5197 30.7701 24.5758 30.8928 24.529Z" fill="black"/>
<path d="M24.9219 22.3359L27.4518 21.0724L28.5327 20.2676L27.2866 20.7964L24.9219 22.3359Z" fill="black"/>
<path d="M29.6467 24.8573C29.7741 24.8386 29.8638 24.7216 29.8496 24.5953C29.8307 24.4689 29.7127 24.38 29.5853 24.394C29.4579 24.4128 29.3682 24.5297 29.3823 24.6561C29.3965 24.7871 29.5145 24.876 29.6467 24.8573Z" fill="black"/>
<path d="M24.4546 21.2075L27.2253 20.6366L28.4808 20.1406L27.1403 20.3278L24.4546 21.2075Z" fill="black"/>
<path d="M28.3534 24.8582C28.4808 24.8769 28.5988 24.7834 28.6177 24.657C28.6366 24.5307 28.5422 24.4137 28.4147 24.395C28.2873 24.3762 28.1693 24.4698 28.1504 24.5962C28.1362 24.7272 28.2259 24.8442 28.3534 24.8582Z" fill="black"/>
<path d="M24.2941 20.0009L27.1167 20.16L28.4619 20.0009L27.1167 19.8418L24.2941 20.0009Z" fill="black"/>
<path d="M27.1072 24.529C27.2252 24.5805 27.3668 24.5197 27.414 24.4027C27.4612 24.2857 27.4046 24.1453 27.2866 24.0985C27.1686 24.047 27.027 24.1079 26.9798 24.2249C26.9326 24.3418 26.9892 24.4775 27.1072 24.529Z" fill="black"/>
<path d="M24.4546 18.793L27.1403 19.6727L28.4808 19.8646L27.2253 19.3639L24.4546 18.793Z" fill="black"/>
<path d="M25.9886 23.8877C26.0925 23.9673 26.2388 23.9485 26.319 23.8456C26.3993 23.7426 26.3804 23.5976 26.2766 23.518C26.1727 23.4385 26.0264 23.4572 25.9462 23.5601C25.8706 23.6631 25.8895 23.8081 25.9886 23.8877Z" fill="black"/>
<path d="M24.9219 17.6641L27.2866 19.2036L28.5327 19.7324L27.4518 18.9275L24.9219 17.6641Z" fill="black"/>
<path d="M25.0776 22.9862C25.1578 23.0892 25.3041 23.1079 25.408 23.0283C25.5118 22.9488 25.5307 22.8037 25.4505 22.7008C25.3702 22.5978 25.2239 22.5791 25.1201 22.6586C25.0209 22.7335 24.9973 22.8833 25.0776 22.9862Z" fill="black"/>
<path d="M25.6724 16.7012L27.5557 18.7929L28.6177 19.6258L27.7822 18.5683L25.6724 16.7012Z" fill="black"/>
<path d="M24.4309 21.8773C24.4829 21.9943 24.6197 22.0551 24.7377 22.0036C24.8557 21.9522 24.9171 21.8165 24.8652 21.6995C24.8133 21.5825 24.6764 21.5216 24.5584 21.5731C24.4404 21.6199 24.3837 21.7556 24.4309 21.8773Z" fill="black"/>
<path d="M26.6447 15.957L27.9191 18.4652L28.7309 19.5368L28.1976 18.3061L26.6447 15.957Z" fill="black"/>
<path d="M24.1005 20.6405C24.1194 20.7668 24.2374 20.8557 24.3649 20.8417C24.4923 20.823 24.582 20.706 24.5678 20.5796C24.5489 20.4533 24.4309 20.3644 24.3035 20.3784C24.1713 20.3924 24.0817 20.5094 24.1005 20.6405Z" fill="black"/>
<path d="M27.7822 15.4941L28.3581 18.241L28.8631 19.4857L28.6696 18.1568L27.7822 15.4941Z" fill="black"/>
<path d="M24.1006 19.3589C24.0817 19.4853 24.1761 19.6023 24.3035 19.621C24.431 19.6397 24.549 19.5461 24.5678 19.4198C24.5867 19.2934 24.4923 19.1764 24.3649 19.1577C24.2327 19.1437 24.1147 19.2326 24.1006 19.3589Z" fill="black"/>
<path d="M29 15.334L28.8395 18.1323L29 19.4659L29.1604 18.1323L29 15.334Z" fill="black"/>
<path d="M24.4357 18.1233C24.3838 18.2403 24.4452 18.3807 24.5632 18.4275C24.6812 18.4743 24.8228 18.4181 24.87 18.3011C24.9219 18.1841 24.8605 18.0437 24.7425 17.997C24.6198 17.9502 24.4829 18.0063 24.4357 18.1233Z" fill="black"/>
<path d="M30.2177 15.4941L29.3304 18.1568L29.1368 19.4857L29.6419 18.241L30.2177 15.4941Z" fill="black"/>
<path d="M25.0777 17.0191C24.9974 17.1221 25.0163 17.2671 25.1201 17.3467C25.224 17.4262 25.3703 17.4075 25.4505 17.3046C25.5308 17.2016 25.5119 17.0566 25.4081 16.977C25.3042 16.8975 25.1579 16.9162 25.0777 17.0191Z" fill="black"/>
<path d="M31.3553 15.957L29.8024 18.3061L29.269 19.5368L30.0809 18.4652L31.3553 15.957Z" fill="black"/>
<path d="M25.9933 16.1117C25.8895 16.1913 25.8706 16.3364 25.9508 16.4393C26.0311 16.5423 26.1774 16.561 26.2812 16.4814C26.3851 16.4019 26.4039 16.2568 26.3237 16.1539C26.2435 16.0509 26.0924 16.0369 25.9933 16.1117Z" fill="black"/>
<path d="M32.3276 16.7012L30.2178 18.5683L29.3823 19.6258L30.4443 18.7929L32.3276 16.7012Z" fill="black"/>
<path d="M27.1072 15.4742C26.9892 15.5256 26.9326 15.6613 26.9798 15.7783C27.0317 15.8953 27.1686 15.9561 27.2866 15.9047C27.4046 15.8532 27.4659 15.7175 27.414 15.6005C27.3668 15.4788 27.2299 15.4227 27.1072 15.4742Z" fill="black"/>
<path d="M33.0781 17.6641L30.5482 18.9275L29.4673 19.7324L30.7134 19.2036L33.0781 17.6641Z" fill="black"/>
<path d="M28.3534 15.143C28.2259 15.1617 28.1362 15.2787 28.1504 15.4051C28.1693 15.5314 28.2873 15.6203 28.4147 15.6063C28.5422 15.5876 28.6366 15.4706 28.6177 15.3442C28.6035 15.2179 28.4855 15.1243 28.3534 15.143Z" fill="black"/>
<path d="M33.5454 18.793L30.7747 19.3639L29.5192 19.8646L30.8597 19.6727L33.5454 18.793Z" fill="black"/>
<path d="M29.6466 15.143C29.5192 15.1243 29.4012 15.2179 29.3823 15.3442C29.3634 15.4706 29.4578 15.5876 29.5853 15.6063C29.7127 15.625 29.8307 15.5314 29.8496 15.4051C29.8637 15.2787 29.7741 15.1571 29.6466 15.143Z" fill="black"/>
<path d="M33.7059 20.0009L30.8833 19.8418L29.5381 20.0009L30.8833 20.16L33.7059 20.0009Z" fill="black"/>
<path d="M30.8928 15.4755C30.7748 15.424 30.6332 15.4848 30.586 15.6018C30.5341 15.7188 30.5954 15.8592 30.7134 15.906C30.8314 15.9528 30.973 15.8966 31.0202 15.7796C31.0674 15.658 31.0108 15.5223 30.8928 15.4755Z" fill="black"/>
<path d="M33.5454 21.2075L30.8597 20.3278L29.5192 20.1406L30.7747 20.6366L33.5454 21.2075Z" fill="black"/>
<path d="M32.0067 16.1118C31.9028 16.0322 31.7565 16.0509 31.6763 16.1539C31.596 16.2568 31.6149 16.4019 31.7188 16.4814C31.8226 16.561 31.9689 16.5423 32.0492 16.4393C32.1294 16.3364 32.1105 16.1913 32.0067 16.1118Z" fill="black"/>
<path d="M33.0781 22.3359L30.7134 20.7964L29.4673 20.2676L30.5482 21.0724L33.0781 22.3359Z" fill="black"/>
<path d="M32.9223 17.0191C32.8421 16.9162 32.6958 16.8975 32.5919 16.977C32.4881 17.0566 32.4692 17.2016 32.5495 17.3046C32.6297 17.4075 32.776 17.4262 32.8799 17.3467C32.979 17.2671 33.0026 17.1174 32.9223 17.0191Z" fill="black"/>
<path d="M32.3276 23.2989L30.4443 21.2072L29.3823 20.3789L30.2178 21.4318L32.3276 23.2989Z" fill="black"/>
<path d="M33.5691 18.1233C33.5171 18.0063 33.3803 17.9455 33.2622 17.997C33.1442 18.0484 33.0829 18.1841 33.1348 18.3011C33.1867 18.4181 33.3236 18.4743 33.4416 18.4275C33.5596 18.3807 33.6163 18.245 33.5691 18.1233Z" fill="black"/>
<path d="M31.3553 24.0427L30.0809 21.5345L29.269 20.4629L29.8024 21.6983L31.3553 24.0427Z" fill="black"/>
<path d="M33.8994 19.3589C33.8805 19.2326 33.7625 19.1437 33.6351 19.1577C33.5077 19.1764 33.418 19.2934 33.4321 19.4198C33.451 19.5461 33.569 19.635 33.6965 19.621C33.8286 19.6069 33.9183 19.4899 33.8994 19.3589Z" fill="black"/>
<path d="M30.2177 24.5072L29.6419 21.765L29.1368 20.5156L29.3304 21.8446L30.2177 24.5072Z" fill="black"/>
</g>
<defs>
<clipPath id="clip0_1026_2">
<rect width="58" height="40" fill="white"/>
</clipPath>
</defs>
</svg>
