<svg width="40" height="40" viewBox="0 0 40 40" fill="none" xmlns="http://www.w3.org/2000/svg">
<path d="M29.5625 30.5624H25.1175V23.6C25.1175 21.94 25.0875 19.8025 22.805 19.8025C20.49 19.8025 20.135 21.6125 20.135 23.4775V30.5624H15.69V16.245H19.9575V18.2025H20.0175C20.8875 16.7175 22.5075 15.8275 24.2275 15.89C28.7325 15.89 29.565 18.8525 29.565 22.71L29.5625 30.5599V30.5624ZM10.675 14.2875C9.99219 14.2842 9.33823 14.0117 8.85517 13.5291C8.37211 13.0465 8.09894 12.3928 8.095 11.71C8.095 10.295 9.26 9.13002 10.675 9.13002C12.09 9.13002 13.2525 10.295 13.255 11.71C13.255 13.125 12.09 14.2875 10.675 14.2875ZM12.8975 30.5624H8.4475V16.245H12.8975V30.5624ZM31.775 5.00004H6.2125C5.63288 4.99667 5.07534 5.22219 4.66106 5.62758C4.24677 6.03297 4.00921 6.58547 4 7.16503V32.8349C4.00921 33.4145 4.24677 33.967 4.66106 34.3724C5.07534 34.7778 5.63288 35.0033 6.2125 34.9999H31.7775C32.3585 35.0046 32.9178 34.7799 33.334 34.3745C33.7501 33.9691 33.9895 33.4158 34 32.8349V7.16253C33.9895 6.5821 33.75 6.02935 33.3337 5.62476C32.9173 5.22016 32.358 4.9965 31.7775 5.00254L31.775 5.00004Z" fill="#0B57D0"/>
</svg>
