<svg width="40" height="40" viewBox="0 0 40 40" fill="none" xmlns="http://www.w3.org/2000/svg">
<path d="M29.669 26.096C29.181 26.24 28.466 26.256 27.699 26.145C26.8386 26.0142 26.0006 25.7645 25.209 25.403C26.682 25.189 27.824 25.255 28.8 25.601C29.032 25.683 29.412 25.902 29.669 26.096ZM21.455 24.746L21.278 24.794C20.882 24.902 20.496 25.007 20.125 25.1L19.624 25.227C18.616 25.482 17.586 25.743 16.569 26.053C16.956 25.121 17.315 24.178 17.667 23.256C17.927 22.574 18.193 21.877 18.468 21.189C18.608 21.419 18.753 21.65 18.905 21.881C19.6141 22.9526 20.4728 23.9174 21.455 24.746ZM18.893 14.233C18.958 15.383 18.71 16.49 18.346 17.551C17.897 16.239 17.688 14.789 18.249 13.619C18.393 13.319 18.51 13.159 18.587 13.074C18.705 13.257 18.86 13.664 18.893 14.233ZM13.633 28.805C13.381 29.256 13.124 29.678 12.861 30.077C12.224 31.035 11.184 32.062 10.649 32.062C10.597 32.062 10.533 32.054 10.44 31.955C10.38 31.893 10.37 31.848 10.374 31.786C10.392 31.434 10.859 30.806 11.535 30.224C12.1797 29.6748 12.8833 29.1989 13.633 28.805ZM31.371 26.146C31.289 24.972 29.312 24.219 29.293 24.212C28.529 23.941 27.699 23.809 26.755 23.809C25.745 23.809 24.657 23.955 23.258 24.282C22.0278 23.4146 20.9693 22.3265 20.136 21.073C19.782 20.533 19.463 19.994 19.185 19.468C19.863 17.845 20.475 16.101 20.363 14.148C20.273 12.582 19.567 11.53 18.607 11.53C17.948 11.53 17.381 12.018 16.919 12.981C16.097 14.699 16.313 16.896 17.562 19.518C17.1178 20.5809 16.6937 21.6521 16.29 22.731C15.786 24.05 15.267 25.411 14.683 26.704C13.043 27.354 11.696 28.14 10.574 29.106C9.839 29.737 8.952 30.703 8.902 31.711C8.877 32.185 9.04 32.621 9.37 32.969C9.722 33.339 10.163 33.535 10.649 33.535C12.252 33.535 13.795 31.333 14.088 30.891C14.677 30.003 15.228 29.012 15.768 27.87C17.129 27.378 18.579 27.011 19.985 26.656L20.488 26.528C20.8806 26.4272 21.2723 26.3229 21.663 26.215C22.09 26.1 22.53 25.98 22.976 25.866C24.419 26.784 25.971 27.383 27.486 27.603C28.76 27.788 29.892 27.681 30.659 27.281C31.349 26.921 31.387 26.368 31.371 26.146ZM34.476 36.243C34.476 38.393 32.58 38.526 32.198 38.53H7.745C5.602 38.53 5.473 36.622 5.469 36.243V3.756C5.469 1.604 7.368 1.473 7.745 1.469H24.263L24.272 1.478V7.924C24.272 9.218 25.054 11.667 28.016 11.667H34.42L34.475 11.722V36.242L34.476 36.243ZM32.957 10.198H28.017C25.875 10.198 25.745 8.3 25.742 7.924V2.954L32.957 10.198ZM35.945 36.243V11.116L25.742 0.87V0.823H25.694L24.874 0H7.744C6.45 0 4 0.785 4 3.757V36.243C4 37.543 4.783 40 7.745 40H32.2C33.495 40 35.945 39.214 35.945 36.243Z" fill="#EB5757"/>
</svg>
