<svg width="40" height="40" viewBox="0 0 40 40" fill="none" xmlns="http://www.w3.org/2000/svg">
<path d="M5.75 9.70833C5.75 23.2623 16.7377 34.25 30.2917 34.25C30.9032 34.25 31.5094 34.2277 32.1098 34.1837C32.7987 34.1331 33.1431 34.108 33.4568 33.9275C33.7164 33.778 33.9626 33.513 34.0928 33.243C34.25 32.9172 34.25 32.537 34.25 31.7768V27.3161C34.25 26.6768 34.25 26.3571 34.1447 26.0832C34.0519 25.8411 33.9009 25.6256 33.7052 25.4555C33.4837 25.263 33.1832 25.1537 32.5824 24.9352L27.505 23.0889C26.806 22.8348 26.4564 22.7077 26.1248 22.7292C25.8324 22.7482 25.551 22.8481 25.3119 23.0175C25.0409 23.2096 24.8496 23.5285 24.4669 24.1664L23.1667 26.3333C18.971 24.4332 15.5697 21.0274 13.6667 16.8333L15.8337 15.5331C16.4715 15.1505 16.7904 14.9591 16.9825 14.688C17.1519 14.449 17.2518 14.1676 17.2708 13.8752C17.2923 13.5436 17.1652 13.1941 16.9111 12.4951L15.0647 7.41758C14.8463 6.81679 14.737 6.51638 14.5445 6.29483C14.3744 6.09911 14.1589 5.94815 13.9169 5.85521C13.6429 5.75 13.3232 5.75 12.6839 5.75H8.22318C7.46298 5.75 7.08287 5.75 6.75697 5.90715C6.48704 6.03731 6.22206 6.2836 6.07253 6.5433C5.89199 6.85686 5.86677 7.20131 5.81633 7.89024C5.77237 8.49053 5.75 9.09682 5.75 9.70833Z" stroke="#0B57D0" stroke-width="4" stroke-linecap="round" stroke-linejoin="round"/>
</svg>
