<svg width="40" height="40" viewBox="0 0 40 40" fill="none" xmlns="http://www.w3.org/2000/svg">
<path d="M8.79995 3.19922C5.6812 3.19922 3.19995 5.68047 3.19995 8.79922V31.1992C3.19995 34.318 5.6812 36.7992 8.79995 36.7992H31.2C34.3187 36.7992 36.8 34.318 36.8 31.1992V11.9992L35.2 13.8492V31.1992C35.2 33.4398 33.4406 35.1992 31.2 35.1992H8.79995C6.55933 35.1992 4.79995 33.4398 4.79995 31.1992V8.79922C4.79995 6.55859 6.55933 4.79922 8.79995 4.79922H29.925L31.2 3.19922H8.79995ZM34.6 6.19922L19.125 24.4492L12.625 18.3742L11.525 19.5492L18.65 26.1742L19.275 26.7492L19.8 26.1242L35.8 7.22422L34.6 6.19922Z" fill="black"/>
</svg>
