<svg width="56" height="39" viewBox="0 0 56 39" fill="none" xmlns="http://www.w3.org/2000/svg">
<g clip-path="url(#clip0_1027_59)">
<path d="M2.87 38.4H52.33C53.92 38.31 55.2 36.98 55.2 35.37V3.03C55.2 1.37 53.85 0.01 52.19 0H3.01C1.35 0.01 0 1.37 0 3.03V35.36C0 36.98 1.28 38.31 2.87 38.4Z" fill="#FEFEFE"/>
<path d="M23.74 23.03V38.4H31.42V23.03H55.2V15.35H31.42V0H23.74V15.35H0V23.03H23.74Z" fill="#C8102E"/>
<path d="M33.98 12.43V0H52.21C53.47 0.02 54.55 0.81 54.99 1.92L33.98 12.43Z" fill="#012169"/>
<path d="M33.98 25.9707V38.4007H52.33C53.54 38.3307 54.56 37.5507 54.99 36.4807L33.98 25.9707Z" fill="#012169"/>
<path d="M21.18 25.9707V38.4007H2.86996C1.65996 38.3307 0.629961 37.5507 0.209961 36.4607L21.18 25.9707Z" fill="#012169"/>
<path d="M21.18 12.43V0H2.98996C1.72996 0.02 0.639961 0.82 0.209961 1.94L21.18 12.43Z" fill="#012169"/>
<path d="M0 12.8007H7.65L0 8.9707V12.8007Z" fill="#012169"/>
<path d="M55.2 12.7992H47.51L55.2 8.94922V12.7992Z" fill="#012169"/>
<path d="M55.2 25.5996H47.51L55.2 29.4496V25.5996Z" fill="#012169"/>
<path d="M0 25.5996H7.65L0 29.4296V25.5996Z" fill="#012169"/>
<path d="M55.2 3.25L36.15 12.8H40.41L55.2 5.4V3.25Z" fill="#C8102E"/>
<path d="M19.01 25.5996H14.75L0 32.9796V35.1296L19.05 25.5996H19.01Z" fill="#C8102E"/>
<path d="M10.52 12.8102H14.78L0 5.41016V7.55016L10.52 12.8102Z" fill="#C8102E"/>
<path d="M44.63 25.5898H40.37L55.2 33.0198V30.8798L44.63 25.5898Z" fill="#C8102E"/>
</g>
<defs>
<clipPath id="clip0_1027_59">
<rect width="55.2" height="38.4" fill="white"/>
</clipPath>
</defs>
</svg>
