<svg width="56" height="39" viewBox="0 0 56 39" fill="none" xmlns="http://www.w3.org/2000/svg">
<g clip-path="url(#clip0_1027_76)">
<path d="M3.03 0H52.16C53.83 0 55.19 1.36 55.19 3.03V35.36C55.19 37.03 53.83 38.39 52.16 38.39H3.03C1.36 38.4 0 37.04 0 35.37V3.03C0 1.36 1.36 0 3.03 0Z" fill="#B22234"/>
<path d="M0.02 2.73047H55.19C55.2 2.83047 55.21 2.93047 55.21 3.04047V5.98047H0V3.03047C0 2.93047 0.01 2.83047 0.02 2.73047ZM55.2 8.67047V11.9105H0V8.67047H55.2ZM55.2 14.6105V17.8505H0V14.6105H55.2ZM55.2 20.5505V23.7905H0V20.5505H55.2ZM55.2 26.4905V29.7305H0V26.4905H55.2ZM55.2 32.4305V35.3605C55.2 35.4605 55.19 35.5705 55.18 35.6705H0.02C0.01 35.5805 0 35.4705 0 35.3705V32.4405H55.2V32.4305Z" fill="white"/>
<path d="M20.8 0V20.68H0V3.03C0 1.36 1.36 0 3.03 0H20.8Z" fill="#3C3B6E"/>
<path d="M1.22998 2.85938L1.91998 5.00938L0.0999756 3.67938H2.35998L0.529976 5.00938L1.22998 2.85938Z" fill="white"/>
<path d="M1.22998 7.01953L1.91998 9.16953L0.0999756 7.83953H2.35998L0.529976 9.16953L1.22998 7.01953Z" fill="white"/>
<path d="M1.22998 11.1797L1.91998 13.3297L0.0999756 11.9997H2.35998L0.529976 13.3297L1.22998 11.1797Z" fill="white"/>
<path d="M1.22998 15.3398L1.91998 17.4898L0.0999756 16.1598H2.35998L0.529976 17.4898L1.22998 15.3398Z" fill="white"/>
<path d="M3.67004 0.779297L4.37004 2.9293L2.54004 1.5993H4.81004L2.97004 2.9293L3.67004 0.779297Z" fill="white"/>
<path d="M3.67004 4.93945L4.37004 7.08945L2.54004 5.75945H4.81004L2.97004 7.08945L3.67004 4.93945Z" fill="white"/>
<path d="M3.67004 9.09961L4.37004 11.2496L2.54004 9.91961H4.81004L2.97004 11.2496L3.67004 9.09961Z" fill="white"/>
<path d="M3.67004 13.2598L4.37004 15.4098L2.54004 14.0798H4.81004L2.97004 15.4098L3.67004 13.2598Z" fill="white"/>
<path d="M3.67004 17.4199L4.37004 19.5699L2.54004 18.2399H4.81004L2.97004 19.5699L3.67004 17.4199Z" fill="white"/>
<path d="M6.11999 2.85938L6.81999 5.00938L4.98999 3.67938H7.24999L5.41999 5.00938L6.11999 2.85938Z" fill="white"/>
<path d="M6.11999 7.01953L6.81999 9.16953L4.98999 7.83953H7.24999L5.41999 9.16953L6.11999 7.01953Z" fill="white"/>
<path d="M6.11999 11.1797L6.81999 13.3297L4.98999 11.9997H7.24999L5.41999 13.3297L6.11999 11.1797Z" fill="white"/>
<path d="M6.11999 15.3398L6.81999 17.4898L4.98999 16.1598H7.24999L5.41999 17.4898L6.11999 15.3398Z" fill="white"/>
<path d="M8.56994 0.779297L9.25994 2.9293L7.43994 1.5993H9.69994L7.86994 2.9293L8.56994 0.779297Z" fill="white"/>
<path d="M8.56994 4.93945L9.25994 7.08945L7.43994 5.75945H9.69994L7.86994 7.08945L8.56994 4.93945Z" fill="white"/>
<path d="M8.56994 9.09961L9.25994 11.2496L7.43994 9.91961H9.69994L7.86994 11.2496L8.56994 9.09961Z" fill="white"/>
<path d="M8.56994 13.2598L9.25994 15.4098L7.43994 14.0798H9.69994L7.86994 15.4098L8.56994 13.2598Z" fill="white"/>
<path d="M8.56994 17.4199L9.25994 19.5699L7.43994 18.2399H9.69994L7.86994 19.5699L8.56994 17.4199Z" fill="white"/>
<path d="M11.01 2.85938L11.71 5.00938L9.88 3.67938H12.14L10.31 5.00938L11.01 2.85938Z" fill="white"/>
<path d="M11.01 7.01953L11.71 9.16953L9.88 7.83953H12.14L10.31 9.16953L11.01 7.01953Z" fill="white"/>
<path d="M11.01 11.1797L11.71 13.3297L9.88 11.9997H12.14L10.31 13.3297L11.01 11.1797Z" fill="white"/>
<path d="M11.01 15.3398L11.71 17.4898L9.88 16.1598H12.14L10.31 17.4898L11.01 15.3398Z" fill="white"/>
<path d="M13.46 0.779297L14.16 2.9293L12.33 1.5993H14.59L12.76 2.9293L13.46 0.779297Z" fill="white"/>
<path d="M13.46 4.93945L14.16 7.08945L12.33 5.75945H14.59L12.76 7.08945L13.46 4.93945Z" fill="white"/>
<path d="M13.46 9.09961L14.16 11.2496L12.33 9.91961H14.59L12.76 11.2496L13.46 9.09961Z" fill="white"/>
<path d="M13.46 13.2598L14.16 15.4098L12.33 14.0798H14.59L12.76 15.4098L13.46 13.2598Z" fill="white"/>
<path d="M13.46 17.4199L14.16 19.5699L12.33 18.2399H14.59L12.76 19.5699L13.46 17.4199Z" fill="white"/>
<path d="M15.9 2.85938L16.6 5.00938L14.77 3.67938H17.03L15.21 5.00938L15.9 2.85938Z" fill="white"/>
<path d="M15.9 7.01953L16.6 9.16953L14.77 7.83953H17.03L15.21 9.16953L15.9 7.01953Z" fill="white"/>
<path d="M15.9 11.1797L16.6 13.3297L14.77 11.9997H17.03L15.21 13.3297L15.9 11.1797Z" fill="white"/>
<path d="M15.9 15.3398L16.6 17.4898L14.77 16.1598H17.03L15.21 17.4898L15.9 15.3398Z" fill="white"/>
<path d="M18.35 0.779297L19.05 2.9293L17.22 1.5993H19.48L17.65 2.9293L18.35 0.779297Z" fill="white"/>
<path d="M18.35 4.93945L19.05 7.08945L17.22 5.75945H19.48L17.65 7.08945L18.35 4.93945Z" fill="white"/>
<path d="M18.35 9.09961L19.05 11.2496L17.22 9.91961H19.48L17.65 11.2496L18.35 9.09961Z" fill="white"/>
<path d="M18.35 13.2598L19.05 15.4098L17.22 14.0798H19.48L17.65 15.4098L18.35 13.2598Z" fill="white"/>
<path d="M18.35 17.4199L19.05 19.5699L17.22 18.2399H19.48L17.65 19.5699L18.35 17.4199Z" fill="white"/>
</g>
<defs>
<clipPath id="clip0_1027_76">
<rect width="55.2" height="38.4" fill="white"/>
</clipPath>
</defs>
</svg>
